<svg width="356" height="268" viewBox="0 0 356 268" fill="none" xmlns="http://www.w3.org/2000/svg">
<path d="M62.2197 18.2197C62.079 18.3603 62 18.5511 62 18.75V28.25C62 28.6642 62.3358 29 62.75 29C63.1642 29 63.5 28.6642 63.5 28.25L63.5 20.2896L64.7197 21.7803L73.2197 30.2803C73.5126 30.5732 73.9874 30.5732 74.2803 30.2803C74.5732 29.9874 74.5732 29.5126 74.2803 29.2197L65.7803 20.7197L64.2896 19.5L72.25 19.5C72.6642 19.5 73 19.1642 73 18.75C73 18.3358 72.6642 18 72.25 18L62.75 18C62.5511 18 62.3603 18.079 62.2197 18.2197Z" fill="black" style="fill:black;fill-opacity:1;"/>
<path d="M63.625 64.6112L63.625 72.25C63.625 72.7332 63.2332 73.125 62.75 73.125C62.2668 73.125 61.875 72.7332 61.875 72.25V62.75C61.875 62.2668 62.2668 61.875 62.75 61.875H72.25C72.7332 61.875 73.125 62.2668 73.125 62.75C73.125 63.2332 72.7332 63.625 72.25 63.625H64.6112L66.1187 64.8813L74.3687 73.1313C74.7104 73.473 74.7104 74.027 74.3687 74.3687C74.027 74.7104 73.473 74.7104 73.1313 74.3687L64.8813 66.1187L63.625 64.6112Z" fill="black" style="fill:black;fill-opacity:1;"/>
<path d="M62.0429 106.043C61.8554 106.23 61.75 106.485 61.75 106.75V116.25C61.75 116.802 62.1977 117.25 62.75 117.25C63.3023 117.25 63.75 116.802 63.75 116.25L63.75 108.929L65.0429 110.457L73.0429 118.457C73.4334 118.848 74.0666 118.848 74.4571 118.457C74.8476 118.067 74.8476 117.433 74.4571 117.043L66.4571 109.043L64.9291 107.75L72.25 107.75C72.8023 107.75 73.25 107.302 73.25 106.75C73.25 106.198 72.8023 105.75 72.25 105.75L62.75 105.75C62.4848 105.75 62.2304 105.855 62.0429 106.043Z" fill="black" style="fill:black;fill-opacity:1;"/>
<path d="M164.125 200C164.125 200.232 164.033 200.455 163.869 200.619L157.369 207.119C157.027 207.46 156.473 207.46 156.131 207.119C155.79 206.777 155.79 206.223 156.131 205.881L161.264 200.749L159.5 200.875H148.25C147.767 200.875 147.375 200.483 147.375 200C147.375 199.517 147.767 199.125 148.25 199.125H159.5L161.264 199.251L156.131 194.119C155.79 193.777 155.79 193.223 156.131 192.881C156.473 192.54 157.027 192.54 157.369 192.881L163.869 199.381C164.033 199.545 164.125 199.768 164.125 200Z" fill="black" style="fill:black;fill-opacity:1;"/>
<path d="M164 244C164 244.199 163.921 244.39 163.78 244.53L157.28 251.03C156.987 251.323 156.513 251.323 156.22 251.03C155.927 250.737 155.927 250.263 156.22 249.97L161.569 244.62L159.75 244.75H148.25C147.836 244.75 147.5 244.414 147.5 244C147.5 243.586 147.836 243.25 148.25 243.25H159.75L161.569 243.38L156.22 238.03C155.927 237.737 155.927 237.263 156.22 236.97C156.513 236.677 156.987 236.677 157.28 236.97L163.78 243.47C163.921 243.61 164 243.801 164 244Z" fill="black" style="fill:black;fill-opacity:1;"/>
<path d="M164.25 156C164.25 156.265 164.145 156.52 163.957 156.707L157.457 163.207C157.067 163.598 156.433 163.598 156.043 163.207C155.652 162.817 155.652 162.183 156.043 161.793L160.958 156.878L159.25 157H148.25C147.698 157 147.25 156.552 147.25 156C147.25 155.448 147.698 155 148.25 155H159.25L160.958 155.122L156.043 150.207C155.652 149.817 155.652 149.183 156.043 148.793C156.433 148.402 157.067 148.402 157.457 148.793L163.957 155.293C164.145 155.48 164.25 155.735 164.25 156Z" fill="black" style="fill:black;fill-opacity:1;"/>
<path d="M112 59.875C112.232 59.875 112.455 59.9672 112.619 60.1313L119.119 66.6313C119.46 66.973 119.46 67.527 119.119 67.8687C118.777 68.2104 118.223 68.2104 117.881 67.8687L112.749 62.7365L112.875 64.5L112.875 75.75C112.875 76.2332 112.483 76.625 112 76.625C111.517 76.625 111.125 76.2332 111.125 75.75L111.125 64.5L111.251 62.7365L106.119 67.8687C105.777 68.2104 105.223 68.2104 104.881 67.8687C104.54 67.527 104.54 66.973 104.881 66.6313L111.381 60.1313C111.545 59.9672 111.768 59.875 112 59.875Z" fill="black" style="fill:black;fill-opacity:1;"/>
<path d="M105.631 194.869L113.881 203.119L115.389 204.375H107.75C107.267 204.375 106.875 204.767 106.875 205.25C106.875 205.733 107.267 206.125 107.75 206.125H117.25C117.733 206.125 118.125 205.733 118.125 205.25L118.125 195.75C118.125 195.267 117.733 194.875 117.25 194.875C116.767 194.875 116.375 195.267 116.375 195.75L116.375 203.389L115.119 201.881L106.869 193.631C106.527 193.29 105.973 193.29 105.631 193.631C105.29 193.973 105.29 194.527 105.631 194.869Z" fill="black" style="fill:black;fill-opacity:1;"/>
<path d="M112 16C112.199 16 112.39 16.079 112.53 16.2197L119.03 22.7197C119.323 23.0126 119.323 23.4874 119.03 23.7803C118.737 24.0732 118.263 24.0732 117.97 23.7803L112.62 18.4307L112.75 20.25L112.75 31.75C112.75 32.1642 112.414 32.5 112 32.5C111.586 32.5 111.25 32.1642 111.25 31.75L111.25 20.25L111.38 18.4307L106.03 23.7803C105.737 24.0732 105.263 24.0732 104.97 23.7803C104.677 23.4874 104.677 23.0126 104.97 22.7197L111.47 16.2197C111.61 16.079 111.801 16 112 16Z" fill="black" style="fill:black;fill-opacity:1;"/>
<path d="M112 103.75C112.265 103.75 112.52 103.855 112.707 104.043L119.207 110.543C119.598 110.933 119.598 111.567 119.207 111.957C118.817 112.348 118.183 112.348 117.793 111.957L112.878 107.042L113 108.75V119.75C113 120.302 112.552 120.75 112 120.75C111.448 120.75 111 120.302 111 119.75V108.75L111.122 107.042L106.207 111.957C105.817 112.348 105.183 112.348 104.793 111.957C104.402 111.567 104.402 110.933 104.793 110.543L111.293 104.043C111.48 103.855 111.735 103.75 112 103.75Z" fill="black" style="fill:black;fill-opacity:1;"/>
<path d="M105.72 238.78L114.22 247.28L115.71 248.5L107.75 248.5C107.336 248.5 107 248.836 107 249.25C107 249.664 107.336 250 107.75 250L117.25 250C117.449 250 117.64 249.921 117.78 249.78C117.921 249.64 118 249.449 118 249.25V239.75C118 239.336 117.664 239 117.25 239C116.836 239 116.5 239.336 116.5 239.75V247.71L115.28 246.22L106.78 237.72C106.487 237.427 106.013 237.427 105.72 237.72C105.427 238.013 105.427 238.487 105.72 238.78Z" fill="black" style="fill:black;fill-opacity:1;"/>
<path d="M67.125 192.25L67.125 203.5L67.251 205.264L62.1187 200.131C61.777 199.79 61.223 199.79 60.8813 200.131C60.5396 200.473 60.5396 201.027 60.8813 201.369L67.3813 207.869C67.5454 208.033 67.7679 208.125 68 208.125C68.2321 208.125 68.4546 208.033 68.6187 207.869L75.1187 201.369C75.4604 201.027 75.4604 200.473 75.1187 200.131C74.777 199.79 74.223 199.79 73.8813 200.131L68.749 205.264L68.875 203.5V192.25C68.875 191.767 68.4833 191.375 68 191.375C67.5168 191.375 67.125 191.767 67.125 192.25Z" fill="black" style="fill:black;fill-opacity:1;"/>
<path d="M105.543 150.957L113.543 158.957L115.071 160.25L107.75 160.25C107.198 160.25 106.75 160.698 106.75 161.25C106.75 161.802 107.198 162.25 107.75 162.25L117.25 162.25C117.515 162.25 117.77 162.145 117.957 161.957C118.145 161.77 118.25 161.515 118.25 161.25V151.75C118.25 151.198 117.802 150.75 117.25 150.75C116.698 150.75 116.25 151.198 116.25 151.75V159.071L114.957 157.543L106.957 149.543C106.567 149.152 105.933 149.152 105.543 149.543C105.152 149.933 105.152 150.567 105.543 150.957Z" fill="black" style="fill:black;fill-opacity:1;"/>
<path d="M30.3687 194.869L22.1187 203.119L20.6112 204.375H28.25C28.7332 204.375 29.125 204.767 29.125 205.25C29.125 205.733 28.7332 206.125 28.25 206.125H18.75C18.2668 206.125 17.875 205.733 17.875 205.25V195.75C17.875 195.267 18.2668 194.875 18.75 194.875C19.2332 194.875 19.625 195.267 19.625 195.75L19.625 203.389L20.8813 201.881L29.1313 193.631C29.473 193.29 30.027 193.29 30.3687 193.631C30.7104 193.973 30.7104 194.527 30.3687 194.869Z" fill="black" style="fill:black;fill-opacity:1;"/>
<path d="M67.25 236.25L67.25 247.75L67.3799 249.569L62.0303 244.22C61.7374 243.927 61.2626 243.927 60.9697 244.22C60.6768 244.513 60.6768 244.987 60.9697 245.28L67.4697 251.78C67.6103 251.921 67.8011 252 68 252C68.1989 252 68.3897 251.921 68.5303 251.78L75.0303 245.28C75.3232 244.987 75.3232 244.513 75.0303 244.22C74.7374 243.927 74.2626 243.927 73.9697 244.22L68.62 249.569L68.75 247.75L68.75 236.25C68.75 235.836 68.4142 235.5 68 235.5C67.5858 235.5 67.25 235.836 67.25 236.25Z" fill="black" style="fill:black;fill-opacity:1;"/>
<path d="M68 164.25C68.2652 164.25 68.5196 164.145 68.7071 163.957L75.2071 157.457C75.5976 157.067 75.5976 156.433 75.2071 156.043C74.8166 155.652 74.1834 155.652 73.7929 156.043L68.878 160.958L69 159.25V148.25C69 147.698 68.5523 147.25 68 147.25C67.4477 147.25 67 147.698 67 148.25V159.25L67.122 160.958L62.2071 156.043C61.8166 155.652 61.1834 155.652 60.7929 156.043C60.4024 156.433 60.4024 157.067 60.7929 157.457L67.2929 163.957C67.4804 164.145 67.7348 164.25 68 164.25Z" fill="black" style="fill:black;fill-opacity:1;"/>
<path d="M15.875 68C15.875 68.2321 15.9672 68.4546 16.1313 68.6187L22.6313 75.1187C22.973 75.4604 23.527 75.4604 23.8687 75.1187C24.2104 74.777 24.2104 74.223 23.8687 73.8813L18.7365 68.749L20.5 68.875L31.75 68.875C32.2332 68.875 32.625 68.4833 32.625 68C32.625 67.5168 32.2332 67.125 31.75 67.125H20.5L18.7365 67.251L23.8687 62.1187C24.2104 61.777 24.2104 61.223 23.8687 60.8813C23.527 60.5396 22.973 60.5396 22.6313 60.8813L16.1313 67.3813C15.9672 67.5454 15.875 67.7679 15.875 68Z" fill="black" style="fill:black;fill-opacity:1;"/>
<path d="M160.375 64.6112L160.375 72.25C160.375 72.7332 160.767 73.125 161.25 73.125C161.733 73.125 162.125 72.7332 162.125 72.25L162.125 62.75C162.125 62.2668 161.733 61.875 161.25 61.875H151.75C151.267 61.875 150.875 62.2668 150.875 62.75C150.875 63.2332 151.267 63.625 151.75 63.625H159.389L157.881 64.8813L149.631 73.1313C149.29 73.473 149.29 74.027 149.631 74.3687C149.973 74.7104 150.527 74.7104 150.869 74.3687L159.119 66.1187L160.375 64.6112Z" fill="black" style="fill:black;fill-opacity:1;"/>
<path d="M30.2803 238.78L21.7803 247.28L20.2896 248.5L28.25 248.5C28.6642 248.5 29 248.836 29 249.25C29 249.664 28.6642 250 28.25 250L18.75 250C18.5511 250 18.3603 249.921 18.2197 249.78C18.079 249.64 18 249.449 18 249.25V239.75C18 239.336 18.3358 239 18.75 239C19.1642 239 19.5 239.336 19.5 239.75L19.5 247.71L20.7197 246.22L29.2197 237.72C29.5126 237.427 29.9874 237.427 30.2803 237.72C30.5732 238.013 30.5732 238.487 30.2803 238.78Z" fill="black" style="fill:black;fill-opacity:1;"/>
<path d="M30.4571 150.957L22.4571 158.957L20.9291 160.25L28.25 160.25C28.8023 160.25 29.25 160.698 29.25 161.25C29.25 161.802 28.8023 162.25 28.25 162.25L18.75 162.25C18.4848 162.25 18.2304 162.145 18.0429 161.957C17.8554 161.77 17.75 161.515 17.75 161.25V151.75C17.75 151.198 18.1977 150.75 18.75 150.75C19.3023 150.75 19.75 151.198 19.75 151.75L19.75 159.071L21.0429 157.543L29.0429 149.543C29.4334 149.152 30.0666 149.152 30.4571 149.543C30.8476 149.933 30.8476 150.567 30.4571 150.957Z" fill="black" style="fill:black;fill-opacity:1;"/>
<path d="M16 24C16 24.1989 16.079 24.3897 16.2197 24.5303L22.7197 31.0303C23.0126 31.3232 23.4874 31.3232 23.7803 31.0303C24.0732 30.7374 24.0732 30.2626 23.7803 29.9697L18.4307 24.62L20.25 24.75H31.75C32.1642 24.75 32.5 24.4142 32.5 24C32.5 23.5858 32.1642 23.25 31.75 23.25H20.25L18.4307 23.3799L23.7803 18.0303C24.0732 17.7374 24.0732 17.2626 23.7803 16.9697C23.4874 16.6768 23.0126 16.6768 22.7197 16.9697L16.2197 23.4697C16.079 23.6103 16 23.8011 16 24Z" fill="black" style="fill:black;fill-opacity:1;"/>
<path d="M15.75 112C15.75 112.265 15.8554 112.52 16.0429 112.707L22.5429 119.207C22.9334 119.598 23.5666 119.598 23.9571 119.207C24.3476 118.817 24.3476 118.183 23.9571 117.793L19.0422 112.878L20.75 113H31.7499C32.3022 113 32.7499 112.552 32.7499 112C32.7499 111.448 32.3022 111 31.7499 111H20.75L19.0422 111.122L23.9571 106.207C24.3476 105.817 24.3476 105.183 23.9571 104.793C23.5666 104.402 22.9334 104.402 22.5429 104.793L16.0429 111.293C15.8554 111.48 15.75 111.735 15.75 112Z" fill="black" style="fill:black;fill-opacity:1;"/>
<path d="M161.78 18.2197C161.921 18.3603 162 18.5511 162 18.75V28.25C162 28.6642 161.664 29 161.25 29C160.836 29 160.5 28.6642 160.5 28.25V20.2896L159.28 21.7803L150.78 30.2803C150.487 30.5732 150.013 30.5732 149.72 30.2803C149.427 29.9874 149.427 29.5126 149.72 29.2197L158.22 20.7197L159.71 19.5L151.75 19.5C151.336 19.5 151 19.1642 151 18.75C151 18.3358 151.336 18 151.75 18L161.25 18C161.449 18 161.64 18.079 161.78 18.2197Z" fill="black" style="fill:black;fill-opacity:1;"/>
<path d="M161.957 106.043C162.145 106.23 162.25 106.485 162.25 106.75V116.25C162.25 116.802 161.802 117.25 161.25 117.25C160.698 117.25 160.25 116.802 160.25 116.25V108.929L158.957 110.457L150.957 118.457C150.567 118.848 149.933 118.848 149.543 118.457C149.152 118.067 149.152 117.433 149.543 117.043L157.543 109.043L159.071 107.75L151.75 107.75C151.198 107.75 150.75 107.302 150.75 106.75C150.75 106.198 151.198 105.75 151.75 105.75L161.25 105.75C161.515 105.75 161.77 105.855 161.957 106.043Z" fill="black" style="fill:black;fill-opacity:1;"/>
<path d="M203.119 60.3813C202.777 60.0396 202.223 60.0396 201.881 60.3813L194.881 67.3813C194.54 67.723 194.54 68.277 194.881 68.6187L201.881 75.6187C202.223 75.9604 202.777 75.9604 203.119 75.6187C203.46 75.277 203.46 74.723 203.119 74.3813L196.737 68L203.119 61.6187C203.46 61.277 203.46 60.723 203.119 60.3813Z" fill="black" style="fill:black;fill-opacity:1;"/>
<path d="M284.881 60.3813C285.223 60.0396 285.777 60.0396 286.119 60.3813L293.119 67.3813C293.46 67.723 293.46 68.277 293.119 68.6187L286.119 75.6187C285.777 75.9604 285.223 75.9604 284.881 75.6187C284.54 75.277 284.54 74.723 284.881 74.3813L291.263 68L284.881 61.6187C284.54 61.277 284.54 60.723 284.881 60.3813Z" fill="black" style="fill:black;fill-opacity:1;"/>
<path d="M236.381 71.1187C236.04 70.777 236.04 70.223 236.381 69.8813L243.381 62.8813C243.723 62.5396 244.277 62.5396 244.619 62.8813L251.619 69.8813C251.96 70.223 251.96 70.777 251.619 71.1187C251.277 71.4604 250.723 71.4604 250.381 71.1187L244 64.7374L237.619 71.1187C237.277 71.4604 236.723 71.4604 236.381 71.1187Z" fill="black" style="fill:black;fill-opacity:1;"/>
<path d="M339.619 64.8813C339.96 65.223 339.96 65.777 339.619 66.1187L332.619 73.1187C332.277 73.4604 331.723 73.4604 331.381 73.1187L324.381 66.1187C324.04 65.777 324.04 65.223 324.381 64.8813C324.723 64.5396 325.277 64.5396 325.619 64.8813L332 71.2626L338.381 64.8813C338.723 64.5396 339.277 64.5396 339.619 64.8813Z" fill="black" style="fill:black;fill-opacity:1;"/>
<path d="M203.03 16.4697C202.737 16.1768 202.263 16.1768 201.97 16.4697L194.97 23.4697C194.677 23.7626 194.677 24.2374 194.97 24.5303L201.97 31.5303C202.263 31.8232 202.737 31.8232 203.03 31.5303C203.323 31.2374 203.323 30.7626 203.03 30.4697L196.561 24L203.03 17.5303C203.323 17.2374 203.323 16.7626 203.03 16.4697Z" fill="black" style="fill:black;fill-opacity:1;"/>
<path d="M284.97 16.4697C285.263 16.1768 285.737 16.1768 286.03 16.4697L293.03 23.4697C293.323 23.7626 293.323 24.2374 293.03 24.5303L286.03 31.5303C285.737 31.8232 285.263 31.8232 284.97 31.5303C284.677 31.2374 284.677 30.7626 284.97 30.4697L291.439 24L284.97 17.5303C284.677 17.2374 284.677 16.7626 284.97 16.4697Z" fill="black" style="fill:black;fill-opacity:1;"/>
<path d="M236.47 27.0303C236.177 26.7374 236.177 26.2626 236.47 25.9697L243.47 18.9697C243.763 18.6768 244.237 18.6768 244.53 18.9697L251.53 25.9697C251.823 26.2626 251.823 26.7374 251.53 27.0303C251.237 27.3232 250.763 27.3232 250.47 27.0303L244 20.5607L237.53 27.0303C237.237 27.3232 236.763 27.3232 236.47 27.0303Z" fill="black" style="fill:black;fill-opacity:1;"/>
<path d="M339.53 20.9697C339.823 21.2626 339.823 21.7374 339.53 22.0303L332.53 29.0303C332.237 29.3232 331.763 29.3232 331.47 29.0303L324.47 22.0303C324.177 21.7374 324.177 21.2626 324.47 20.9697C324.763 20.6768 325.237 20.6768 325.53 20.9697L332 27.4393L338.47 20.9697C338.763 20.6768 339.237 20.6768 339.53 20.9697Z" fill="black" style="fill:black;fill-opacity:1;"/>
<path d="M203.207 104.293C202.817 103.902 202.183 103.902 201.793 104.293L194.793 111.293C194.402 111.683 194.402 112.317 194.793 112.707L201.793 119.707C202.183 120.098 202.817 120.098 203.207 119.707C203.598 119.317 203.598 118.683 203.207 118.293L196.914 112L203.207 105.707C203.598 105.317 203.598 104.683 203.207 104.293Z" fill="black" style="fill:black;fill-opacity:1;"/>
<path d="M284.793 104.293C285.183 103.902 285.817 103.902 286.207 104.293L293.207 111.293C293.598 111.683 293.598 112.317 293.207 112.707L286.207 119.707C285.817 120.098 285.183 120.098 284.793 119.707C284.402 119.317 284.402 118.683 284.793 118.293L291.086 112L284.793 105.707C284.402 105.317 284.402 104.683 284.793 104.293Z" fill="black" style="fill:black;fill-opacity:1;"/>
<path d="M236.293 115.207C235.902 114.817 235.902 114.183 236.293 113.793L243.293 106.793C243.683 106.402 244.317 106.402 244.707 106.793L251.707 113.793C252.098 114.183 252.098 114.817 251.707 115.207C251.317 115.598 250.683 115.598 250.293 115.207L244 108.914L237.707 115.207C237.317 115.598 236.683 115.598 236.293 115.207Z" fill="black" style="fill:black;fill-opacity:1;"/>
<path d="M339.707 108.793C340.098 109.183 340.098 109.817 339.707 110.207L332.707 117.207C332.317 117.598 331.683 117.598 331.293 117.207L324.293 110.207C323.902 109.817 323.902 109.183 324.293 108.793C324.683 108.402 325.317 108.402 325.707 108.793L332 115.086L338.293 108.793C338.683 108.402 339.317 108.402 339.707 108.793Z" fill="black" style="fill:black;fill-opacity:1;"/>
<path d="M250.619 194.619C250.96 194.277 250.96 193.723 250.619 193.381C250.277 193.04 249.723 193.04 249.381 193.381L244 198.763L238.619 193.381C238.277 193.04 237.723 193.04 237.381 193.381C237.04 193.723 237.04 194.277 237.381 194.619L242.763 200L237.381 205.381C237.04 205.723 237.04 206.277 237.381 206.619C237.723 206.96 238.277 206.96 238.619 206.619L244 201.237L249.381 206.619C249.723 206.96 250.277 206.96 250.619 206.619C250.96 206.277 250.96 205.723 250.619 205.381L245.237 200L250.619 194.619Z" fill="black" style="fill:black;fill-opacity:1;"/>
<path d="M250.53 238.53C250.823 238.237 250.823 237.763 250.53 237.47C250.237 237.177 249.763 237.177 249.47 237.47L244 242.939L238.53 237.47C238.237 237.177 237.763 237.177 237.47 237.47C237.177 237.763 237.177 238.237 237.47 238.53L242.939 244L237.47 249.47C237.177 249.763 237.177 250.237 237.47 250.53C237.763 250.823 238.237 250.823 238.53 250.53L244 245.061L249.47 250.53C249.763 250.823 250.237 250.823 250.53 250.53C250.823 250.237 250.823 249.763 250.53 249.47L245.061 244L250.53 238.53Z" fill="black" style="fill:black;fill-opacity:1;"/>
<path d="M250.707 150.707C251.098 150.317 251.098 149.683 250.707 149.293C250.317 148.902 249.683 148.902 249.293 149.293L244 154.586L238.707 149.293C238.317 148.902 237.683 148.902 237.293 149.293C236.902 149.683 236.902 150.317 237.293 150.707L242.586 156L237.293 161.293C236.902 161.683 236.902 162.317 237.293 162.707C237.683 163.098 238.317 163.098 238.707 162.707L244 157.414L249.293 162.707C249.683 163.098 250.317 163.098 250.707 162.707C251.098 162.317 251.098 161.683 250.707 161.293L245.414 156L250.707 150.707Z" fill="black" style="fill:black;fill-opacity:1;"/>
<path d="M339.875 200C339.875 200.483 339.483 200.875 339 200.875H325C324.517 200.875 324.125 200.483 324.125 200C324.125 199.517 324.517 199.125 325 199.125H339C339.483 199.125 339.875 199.517 339.875 200Z" fill="black" style="fill:black;fill-opacity:1;"/>
<path d="M339.75 244C339.75 244.414 339.414 244.75 339 244.75H325C324.586 244.75 324.25 244.414 324.25 244C324.25 243.586 324.586 243.25 325 243.25H339C339.414 243.25 339.75 243.586 339.75 244Z" fill="black" style="fill:black;fill-opacity:1;"/>
<path d="M340 156C340 156.552 339.552 157 339 157H325C324.448 157 324 156.552 324 156C324 155.448 324.448 155 325 155H339C339.552 155 340 155.448 340 156Z" fill="black" style="fill:black;fill-opacity:1;"/>
<path d="M288.875 192.5C288.875 192.017 288.483 191.625 288 191.625C287.517 191.625 287.125 192.017 287.125 192.5V199.125H280.5C280.017 199.125 279.625 199.517 279.625 200C279.625 200.483 280.017 200.875 280.5 200.875H287.125V207.5C287.125 207.983 287.517 208.375 288 208.375C288.483 208.375 288.875 207.983 288.875 207.5V200.875H295.5C295.983 200.875 296.375 200.483 296.375 200C296.375 199.517 295.983 199.125 295.5 199.125H288.875V192.5Z" fill="black" style="fill:black;fill-opacity:1;"/>
<path d="M289 148.5C289 147.948 288.552 147.5 288 147.5C287.448 147.5 287 147.948 287 148.5V155H280.5C279.948 155 279.5 155.448 279.5 156C279.5 156.552 279.948 157 280.5 157H287V163.5C287 164.052 287.448 164.5 288 164.5C288.552 164.5 289 164.052 289 163.5V157H295.5C296.052 157 296.5 156.552 296.5 156C296.5 155.448 296.052 155 295.5 155H289V148.5Z" fill="black" style="fill:black;fill-opacity:1;"/>
<path d="M288.75 236.5C288.75 236.086 288.414 235.75 288 235.75C287.586 235.75 287.25 236.086 287.25 236.5V243.25L280.5 243.25C280.086 243.25 279.75 243.586 279.75 244C279.75 244.414 280.086 244.75 280.5 244.75H287.25V251.5C287.25 251.914 287.586 252.25 288 252.25C288.414 252.25 288.75 251.914 288.75 251.5V244.75H295.5C295.914 244.75 296.25 244.414 296.25 244C296.25 243.586 295.914 243.25 295.5 243.25L288.75 243.25V236.5Z" fill="black" style="fill:black;fill-opacity:1;"/>
<path fill-rule="evenodd" clip-rule="evenodd" d="M206.972 193.263C207.379 193.523 207.498 194.065 207.237 194.472L198.917 207.472C198.764 207.711 198.505 207.861 198.221 207.874C197.938 207.887 197.666 207.763 197.491 207.539L192.811 201.559C192.513 201.179 192.58 200.629 192.961 200.331C193.341 200.033 193.891 200.1 194.189 200.481L198.108 205.489L205.763 193.528C206.024 193.121 206.565 193.003 206.972 193.263Z" fill="black" style="fill:black;fill-opacity:1;"/>
<path fill-rule="evenodd" clip-rule="evenodd" d="M207.039 149.158C207.504 149.455 207.64 150.074 207.342 150.539L199.022 163.539C198.848 163.812 198.551 163.984 198.227 163.999C197.904 164.014 197.592 163.872 197.393 163.616L192.713 157.636C192.372 157.201 192.449 156.573 192.884 156.232C193.319 155.892 193.947 155.969 194.288 156.404L198.098 161.273L205.658 149.461C205.955 148.996 206.574 148.86 207.039 149.158Z" fill="black" style="fill:black;fill-opacity:1;"/>
<path fill-rule="evenodd" clip-rule="evenodd" d="M206.904 237.368C207.253 237.592 207.355 238.055 207.132 238.404L198.812 251.404C198.681 251.609 198.458 251.738 198.216 251.749C197.973 251.761 197.739 251.654 197.589 251.462L192.909 245.482C192.654 245.156 192.712 244.685 193.038 244.429C193.364 244.174 193.835 244.232 194.091 244.558L198.119 249.705L205.868 237.596C206.092 237.247 206.555 237.145 206.904 237.368Z" fill="black" style="fill:black;fill-opacity:1;"/>
</svg>
