<svg width="508" height="244" viewBox="0 0 508 244" fill="none" xmlns="http://www.w3.org/2000/svg">
<g clip-path="url(#clip0_38_1373)">
<path d="M50.2197 6.21967C50.079 6.36032 50 6.55109 50 6.75V16.25C50 16.6642 50.3358 17 50.75 17C51.1642 17 51.5 16.6642 51.5 16.25L51.5 8.28961L52.7197 9.78033L61.2197 18.2803C61.5126 18.5732 61.9874 18.5732 62.2803 18.2803C62.5732 17.9874 62.5732 17.5126 62.2803 17.2197L53.7803 8.71967L52.2896 7.5L60.25 7.5C60.6642 7.5 61 7.16422 61 6.75C61 6.33579 60.6642 6 60.25 6L50.75 6C50.5511 6 50.3603 6.07902 50.2197 6.21967Z" fill="black" style="fill:black;fill-opacity:1;"/>
<path d="M51.625 52.6112L51.625 60.25C51.625 60.7332 51.2332 61.125 50.75 61.125C50.2668 61.125 49.875 60.7332 49.875 60.25V50.75C49.875 50.2668 50.2668 49.875 50.75 49.875H60.25C60.7332 49.875 61.125 50.2668 61.125 50.75C61.125 51.2332 60.7332 51.625 60.25 51.625H52.6112L54.1187 52.8813L62.3687 61.1313C62.7104 61.473 62.7104 62.027 62.3687 62.3687C62.027 62.7104 61.473 62.7104 61.1313 62.3687L52.8813 54.1187L51.625 52.6112Z" fill="black" style="fill:black;fill-opacity:1;"/>
<path d="M50.0429 94.0429C49.8554 94.2304 49.75 94.4848 49.75 94.75V104.25C49.75 104.802 50.1977 105.25 50.75 105.25C51.3023 105.25 51.75 104.802 51.75 104.25L51.75 96.9292L53.0429 98.4571L61.0429 106.457C61.4334 106.848 62.0666 106.848 62.4571 106.457C62.8476 106.067 62.8476 105.433 62.4571 105.043L54.4571 97.0429L52.9291 95.75L60.25 95.75C60.8023 95.75 61.25 95.3023 61.25 94.75C61.25 94.1977 60.8023 93.75 60.25 93.75L50.75 93.75C50.4848 93.75 50.2304 93.8554 50.0429 94.0429Z" fill="black" style="fill:black;fill-opacity:1;"/>
<path d="M152.125 188C152.125 188.232 152.033 188.455 151.869 188.619L145.369 195.119C145.027 195.46 144.473 195.46 144.131 195.119C143.79 194.777 143.79 194.223 144.131 193.881L149.264 188.749L147.5 188.875H136.25C135.767 188.875 135.375 188.483 135.375 188C135.375 187.517 135.767 187.125 136.25 187.125H147.5L149.264 187.251L144.131 182.119C143.79 181.777 143.79 181.223 144.131 180.881C144.473 180.54 145.027 180.54 145.369 180.881L151.869 187.381C152.033 187.545 152.125 187.768 152.125 188Z" fill="black" style="fill:black;fill-opacity:1;"/>
<path d="M152 232C152 232.199 151.921 232.39 151.78 232.53L145.28 239.03C144.987 239.323 144.513 239.323 144.22 239.03C143.927 238.737 143.927 238.263 144.22 237.97L149.569 232.62L147.75 232.75H136.25C135.836 232.75 135.5 232.414 135.5 232C135.5 231.586 135.836 231.25 136.25 231.25H147.75L149.569 231.38L144.22 226.03C143.927 225.737 143.927 225.263 144.22 224.97C144.513 224.677 144.987 224.677 145.28 224.97L151.78 231.47C151.921 231.61 152 231.801 152 232Z" fill="black" style="fill:black;fill-opacity:1;"/>
<path d="M152.25 144C152.25 144.265 152.145 144.52 151.957 144.707L145.457 151.207C145.067 151.598 144.433 151.598 144.043 151.207C143.652 150.817 143.652 150.183 144.043 149.793L148.958 144.878L147.25 145H136.25C135.698 145 135.25 144.552 135.25 144C135.25 143.448 135.698 143 136.25 143H147.25L148.958 143.122L144.043 138.207C143.652 137.817 143.652 137.183 144.043 136.793C144.433 136.402 145.067 136.402 145.457 136.793L151.957 143.293C152.145 143.48 152.25 143.735 152.25 144Z" fill="black" style="fill:black;fill-opacity:1;"/>
<path d="M100 47.875C100.232 47.875 100.455 47.9672 100.619 48.1313L107.119 54.6313C107.46 54.973 107.46 55.527 107.119 55.8687C106.777 56.2104 106.223 56.2104 105.881 55.8687L100.749 50.7365L100.875 52.5L100.875 63.75C100.875 64.2332 100.483 64.625 100 64.625C99.5168 64.625 99.125 64.2332 99.125 63.75L99.125 52.5L99.251 50.7365L94.1187 55.8687C93.777 56.2104 93.223 56.2104 92.8813 55.8687C92.5396 55.527 92.5396 54.973 92.8813 54.6313L99.3813 48.1313C99.5454 47.9672 99.7679 47.875 100 47.875Z" fill="black" style="fill:black;fill-opacity:1;"/>
<path d="M93.6313 182.869L101.881 191.119L103.389 192.375H95.75C95.2668 192.375 94.875 192.767 94.875 193.25C94.875 193.733 95.2668 194.125 95.75 194.125H105.25C105.733 194.125 106.125 193.733 106.125 193.25L106.125 183.75C106.125 183.267 105.733 182.875 105.25 182.875C104.767 182.875 104.375 183.267 104.375 183.75L104.375 191.389L103.119 189.881L94.8687 181.631C94.527 181.29 93.973 181.29 93.6313 181.631C93.2896 181.973 93.2896 182.527 93.6313 182.869Z" fill="black" style="fill:black;fill-opacity:1;"/>
<path d="M100 4C100.199 4 100.39 4.07902 100.53 4.21967L107.03 10.7197C107.323 11.0126 107.323 11.4874 107.03 11.7803C106.737 12.0732 106.263 12.0732 105.97 11.7803L100.62 6.43071L100.75 8.25L100.75 19.75C100.75 20.1642 100.414 20.5 100 20.5C99.5858 20.5 99.25 20.1642 99.25 19.75L99.25 8.25L99.3799 6.43071L94.0303 11.7803C93.7374 12.0732 93.2626 12.0732 92.9697 11.7803C92.6768 11.4874 92.6768 11.0126 92.9697 10.7197L99.4697 4.21967C99.6103 4.07902 99.8011 4 100 4Z" fill="black" style="fill:black;fill-opacity:1;"/>
<path d="M100 91.75C100.265 91.75 100.52 91.8554 100.707 92.0429L107.207 98.5429C107.598 98.9334 107.598 99.5666 107.207 99.9571C106.817 100.348 106.183 100.348 105.793 99.9571L100.878 95.0422L101 96.75V107.75C101 108.302 100.552 108.75 100 108.75C99.4477 108.75 99 108.302 99 107.75V96.75L99.122 95.0422L94.2071 99.9571C93.8166 100.348 93.1834 100.348 92.7929 99.9571C92.4024 99.5666 92.4024 98.9334 92.7929 98.5429L99.2929 92.0429C99.4804 91.8554 99.7348 91.75 100 91.75Z" fill="black" style="fill:black;fill-opacity:1;"/>
<path d="M93.7197 226.78L102.22 235.28L103.71 236.5L95.75 236.5C95.3358 236.5 95 236.836 95 237.25C95 237.664 95.3358 238 95.75 238L105.25 238C105.449 238 105.64 237.921 105.78 237.78C105.921 237.64 106 237.449 106 237.25V227.75C106 227.336 105.664 227 105.25 227C104.836 227 104.5 227.336 104.5 227.75V235.71L103.28 234.22L94.7803 225.72C94.4874 225.427 94.0126 225.427 93.7197 225.72C93.4268 226.013 93.4268 226.487 93.7197 226.78Z" fill="black" style="fill:black;fill-opacity:1;"/>
<path d="M55.125 180.25L55.125 191.5L55.251 193.264L50.1187 188.131C49.777 187.79 49.223 187.79 48.8813 188.131C48.5396 188.473 48.5396 189.027 48.8813 189.369L55.3813 195.869C55.5454 196.033 55.7679 196.125 56 196.125C56.2321 196.125 56.4546 196.033 56.6187 195.869L63.1187 189.369C63.4604 189.027 63.4604 188.473 63.1187 188.131C62.777 187.79 62.223 187.79 61.8813 188.131L56.749 193.264L56.875 191.5V180.25C56.875 179.767 56.4833 179.375 56 179.375C55.5168 179.375 55.125 179.767 55.125 180.25Z" fill="black" style="fill:black;fill-opacity:1;"/>
<path d="M93.5429 138.957L101.543 146.957L103.071 148.25L95.75 148.25C95.1977 148.25 94.75 148.698 94.75 149.25C94.75 149.802 95.1977 150.25 95.75 150.25L105.25 150.25C105.515 150.25 105.77 150.145 105.957 149.957C106.145 149.77 106.25 149.515 106.25 149.25V139.75C106.25 139.198 105.802 138.75 105.25 138.75C104.698 138.75 104.25 139.198 104.25 139.75V147.071L102.957 145.543L94.9571 137.543C94.5666 137.152 93.9334 137.152 93.5429 137.543C93.1524 137.933 93.1524 138.567 93.5429 138.957Z" fill="black" style="fill:black;fill-opacity:1;"/>
<path d="M18.3687 182.869L10.1187 191.119L8.61118 192.375H16.25C16.7332 192.375 17.125 192.767 17.125 193.25C17.125 193.733 16.7332 194.125 16.25 194.125H6.75C6.26675 194.125 5.875 193.733 5.875 193.25V183.75C5.875 183.267 6.26675 182.875 6.75 182.875C7.23325 182.875 7.625 183.267 7.625 183.75L7.625 191.389L8.88128 189.881L17.1313 181.631C17.473 181.29 18.027 181.29 18.3687 181.631C18.7104 181.973 18.7104 182.527 18.3687 182.869Z" fill="black" style="fill:black;fill-opacity:1;"/>
<path d="M55.25 224.25L55.25 235.75L55.3799 237.569L50.0303 232.22C49.7374 231.927 49.2626 231.927 48.9697 232.22C48.6768 232.513 48.6768 232.987 48.9697 233.28L55.4697 239.78C55.6103 239.921 55.8011 240 56 240C56.1989 240 56.3897 239.921 56.5303 239.78L63.0303 233.28C63.3232 232.987 63.3232 232.513 63.0303 232.22C62.7374 231.927 62.2626 231.927 61.9697 232.22L56.62 237.569L56.75 235.75L56.75 224.25C56.75 223.836 56.4142 223.5 56 223.5C55.5858 223.5 55.25 223.836 55.25 224.25Z" fill="black" style="fill:black;fill-opacity:1;"/>
<path d="M56 152.25C56.2652 152.25 56.5196 152.145 56.7071 151.957L63.2071 145.457C63.5976 145.067 63.5976 144.433 63.2071 144.043C62.8166 143.652 62.1834 143.652 61.7929 144.043L56.878 148.958L57 147.25V136.25C57 135.698 56.5523 135.25 56 135.25C55.4477 135.25 55 135.698 55 136.25V147.25L55.122 148.958L50.2071 144.043C49.8166 143.652 49.1834 143.652 48.7929 144.043C48.4024 144.433 48.4024 145.067 48.7929 145.457L55.2929 151.957C55.4804 152.145 55.7348 152.25 56 152.25Z" fill="black" style="fill:black;fill-opacity:1;"/>
<path d="M3.875 56C3.875 56.2321 3.96719 56.4546 4.13128 56.6187L10.6313 63.1187C10.973 63.4604 11.527 63.4604 11.8687 63.1187C12.2104 62.777 12.2104 62.223 11.8687 61.8813L6.73647 56.749L8.5 56.875L19.75 56.875C20.2332 56.875 20.625 56.4833 20.625 56C20.625 55.5168 20.2332 55.125 19.75 55.125H8.5L6.73647 55.251L11.8687 50.1187C12.2104 49.777 12.2104 49.223 11.8687 48.8813C11.527 48.5396 10.973 48.5396 10.6313 48.8813L4.13128 55.3813C3.96719 55.5454 3.875 55.7679 3.875 56Z" fill="black" style="fill:black;fill-opacity:1;"/>
<path d="M148.375 52.6112L148.375 60.25C148.375 60.7332 148.767 61.125 149.25 61.125C149.733 61.125 150.125 60.7332 150.125 60.25L150.125 50.75C150.125 50.2668 149.733 49.875 149.25 49.875H139.75C139.267 49.875 138.875 50.2668 138.875 50.75C138.875 51.2332 139.267 51.625 139.75 51.625H147.389L145.881 52.8813L137.631 61.1313C137.29 61.473 137.29 62.027 137.631 62.3687C137.973 62.7104 138.527 62.7104 138.869 62.3687L147.119 54.1187L148.375 52.6112Z" fill="black" style="fill:black;fill-opacity:1;"/>
<path d="M18.2803 226.78L9.78033 235.28L8.28963 236.5L16.25 236.5C16.6642 236.5 17 236.836 17 237.25C17 237.664 16.6642 238 16.25 238L6.75 238C6.55109 238 6.36032 237.921 6.21967 237.78C6.07902 237.64 6 237.449 6 237.25V227.75C6 227.336 6.33579 227 6.75 227C7.16421 227 7.5 227.336 7.5 227.75L7.5 235.71L8.71967 234.22L17.2197 225.72C17.5126 225.427 17.9874 225.427 18.2803 225.72C18.5732 226.013 18.5732 226.487 18.2803 226.78Z" fill="black" style="fill:black;fill-opacity:1;"/>
<path d="M18.4571 138.957L10.4571 146.957L8.92908 148.25L16.25 148.25C16.8023 148.25 17.25 148.698 17.25 149.25C17.25 149.802 16.8023 150.25 16.25 150.25L6.75 150.25C6.48478 150.25 6.23043 150.145 6.04289 149.957C5.85536 149.77 5.75 149.515 5.75 149.25V139.75C5.75 139.198 6.19772 138.75 6.75 138.75C7.30229 138.75 7.75 139.198 7.75 139.75L7.75 147.071L9.04288 145.543L17.0429 137.543C17.4334 137.152 18.0666 137.152 18.4571 137.543C18.8476 137.933 18.8476 138.567 18.4571 138.957Z" fill="black" style="fill:black;fill-opacity:1;"/>
<path d="M4 12C4 12.1989 4.07902 12.3897 4.21967 12.5303L10.7197 19.0303C11.0126 19.3232 11.4874 19.3232 11.7803 19.0303C12.0732 18.7374 12.0732 18.2626 11.7803 17.9697L6.43071 12.62L8.25 12.75H19.75C20.1642 12.75 20.5 12.4142 20.5 12C20.5 11.5858 20.1642 11.25 19.75 11.25H8.25L6.43071 11.3799L11.7803 6.03033C12.0732 5.73744 12.0732 5.26256 11.7803 4.96967C11.4874 4.67678 11.0126 4.67678 10.7197 4.96967L4.21967 11.4697C4.07902 11.6103 4 11.8011 4 12Z" fill="black" style="fill:black;fill-opacity:1;"/>
<path d="M3.75 100C3.75 100.265 3.85536 100.52 4.04289 100.707L10.5429 107.207C10.9334 107.598 11.5666 107.598 11.9571 107.207C12.3476 106.817 12.3476 106.183 11.9571 105.793L7.04223 100.878L8.75 101H19.7499C20.3022 101 20.7499 100.552 20.7499 100C20.7499 99.4477 20.3022 99 19.7499 99H8.75L7.04223 99.122L11.9571 94.2071C12.3476 93.8166 12.3476 93.1834 11.9571 92.7929C11.5666 92.4024 10.9334 92.4024 10.5429 92.7929L4.04289 99.2929C3.85536 99.4804 3.75 99.7348 3.75 100Z" fill="black" style="fill:black;fill-opacity:1;"/>
<path d="M149.78 6.21967C149.921 6.36032 150 6.55109 150 6.75V16.25C150 16.6642 149.664 17 149.25 17C148.836 17 148.5 16.6642 148.5 16.25V8.28961L147.28 9.78033L138.78 18.2803C138.487 18.5732 138.013 18.5732 137.72 18.2803C137.427 17.9874 137.427 17.5126 137.72 17.2197L146.22 8.71967L147.71 7.5L139.75 7.5C139.336 7.5 139 7.16422 139 6.75C139 6.33579 139.336 6 139.75 6L149.25 6C149.449 6 149.64 6.07902 149.78 6.21967Z" fill="black" style="fill:black;fill-opacity:1;"/>
<path d="M149.957 94.0429C150.145 94.2304 150.25 94.4848 150.25 94.75V104.25C150.25 104.802 149.802 105.25 149.25 105.25C148.698 105.25 148.25 104.802 148.25 104.25V96.9292L146.957 98.4571L138.957 106.457C138.567 106.848 137.933 106.848 137.543 106.457C137.152 106.067 137.152 105.433 137.543 105.043L145.543 97.0429L147.071 95.75L139.75 95.75C139.198 95.75 138.75 95.3023 138.75 94.75C138.75 94.1977 139.198 93.75 139.75 93.75L149.25 93.75C149.515 93.75 149.77 93.8554 149.957 94.0429Z" fill="black" style="fill:black;fill-opacity:1;"/>
<path d="M234.5 53.625H230.605L232.119 54.8813L236.119 58.8813C236.46 59.223 236.46 59.777 236.119 60.1187C235.777 60.4604 235.223 60.4604 234.881 60.1187L230.881 56.1187L229.625 54.6053V58.5C229.625 58.9832 229.233 59.375 228.75 59.375C228.267 59.375 227.875 58.9832 227.875 58.5V52.75C227.875 52.2668 228.267 51.875 228.75 51.875H234.5C234.983 51.875 235.375 52.2668 235.375 52.75C235.375 53.2332 234.983 53.625 234.5 53.625Z" fill="black" style="fill:black;fill-opacity:1;"/>
<path fill-rule="evenodd" clip-rule="evenodd" d="M221.125 56C221.125 62.0061 225.994 66.875 232 66.875C238.006 66.875 242.875 62.0061 242.875 56C242.875 49.9939 238.006 45.125 232 45.125C225.994 45.125 221.125 49.9939 221.125 56ZM232 65.125C226.96 65.125 222.875 61.0396 222.875 56C222.875 50.9604 226.96 46.875 232 46.875C237.04 46.875 241.125 50.9604 241.125 56C241.125 61.0396 237.04 65.125 232 65.125Z" fill="black" style="fill:black;fill-opacity:1;"/>
<path d="M234.5 97.75H230.929L232.457 99.0429L236.207 102.793C236.598 103.183 236.598 103.817 236.207 104.207C235.817 104.598 235.183 104.598 234.793 104.207L231.043 100.457L229.75 98.9291V102.5C229.75 103.052 229.302 103.5 228.75 103.5C228.198 103.5 227.75 103.052 227.75 102.5V96.75C227.75 96.1977 228.198 95.75 228.75 95.75H234.5C235.052 95.75 235.5 96.1977 235.5 96.75C235.5 97.3023 235.052 97.75 234.5 97.75Z" fill="black" style="fill:black;fill-opacity:1;"/>
<path fill-rule="evenodd" clip-rule="evenodd" d="M221 100C221 106.075 225.925 111 232 111C238.075 111 243 106.075 243 100C243 93.9249 238.075 89 232 89C225.925 89 221 93.9249 221 100ZM232 109C227.029 109 223 104.971 223 100C223 95.0294 227.029 91 232 91C236.971 91 241 95.0294 241 100C241 104.971 236.971 109 232 109Z" fill="black" style="fill:black;fill-opacity:1;"/>
<path d="M234.5 9.5H230.29L231.78 10.7197L236.03 14.9697C236.323 15.2626 236.323 15.7374 236.03 16.0303C235.737 16.3232 235.263 16.3232 234.97 16.0303L230.72 11.7803L229.5 10.2896V14.5C229.5 14.9142 229.164 15.25 228.75 15.25C228.336 15.25 228 14.9142 228 14.5V8.75C228 8.33579 228.336 8 228.75 8H234.5C234.914 8 235.25 8.33579 235.25 8.75C235.25 9.16421 234.914 9.5 234.5 9.5Z" fill="black" style="fill:black;fill-opacity:1;"/>
<path fill-rule="evenodd" clip-rule="evenodd" d="M232 1.25C226.063 1.25 221.25 6.06294 221.25 12C221.25 17.9371 226.063 22.75 232 22.75C237.937 22.75 242.75 17.9371 242.75 12C242.75 6.06294 237.937 1.25 232 1.25ZM222.75 12C222.75 6.89137 226.891 2.75 232 2.75C237.109 2.75 241.25 6.89137 241.25 12C241.25 17.1086 237.109 21.25 232 21.25C226.891 21.25 222.75 17.1086 222.75 12Z" fill="black" style="fill:black;fill-opacity:1;"/>
<path d="M275.125 55.125V60.875C275.125 61.3582 275.517 61.75 276 61.75C276.483 61.75 276.875 61.3582 276.875 60.875L276.875 55.125L276.749 53.3615L279.381 55.9937C279.723 56.3354 280.277 56.3354 280.619 55.9937C280.96 55.652 280.96 55.098 280.619 54.7563L276.619 50.7563C276.455 50.5922 276.232 50.5 276 50.5C275.768 50.5 275.545 50.5922 275.381 50.7563L271.381 54.7563C271.04 55.098 271.04 55.652 271.381 55.9937C271.723 56.3354 272.277 56.3354 272.619 55.9937L275.251 53.3615L275.125 55.125Z" fill="black" style="fill:black;fill-opacity:1;"/>
<path fill-rule="evenodd" clip-rule="evenodd" d="M276 45.125C269.994 45.125 265.125 49.9939 265.125 56C265.125 62.0061 269.994 66.875 276 66.875C282.006 66.875 286.875 62.0061 286.875 56C286.875 49.9939 282.006 45.125 276 45.125ZM266.875 56C266.875 50.9604 270.96 46.875 276 46.875C281.04 46.875 285.125 50.9604 285.125 56C285.125 61.0396 281.04 65.125 276 65.125C270.96 65.125 266.875 61.0396 266.875 56Z" fill="black" style="fill:black;fill-opacity:1;"/>
<path d="M275.293 94.6679C275.48 94.4804 275.735 94.375 276 94.375C276.265 94.375 276.52 94.4804 276.707 94.6679L280.707 98.6679C281.098 99.0584 281.098 99.6916 280.707 100.082C280.317 100.473 279.683 100.473 279.293 100.082L276.878 97.6672L277 99.375L277 104.875C277 105.427 276.552 105.875 276 105.875C275.448 105.875 275 105.427 275 104.875L275 99.3751L275.122 97.6672L272.707 100.082C272.317 100.473 271.683 100.473 271.293 100.082C270.902 99.6916 270.902 99.0584 271.293 98.6679L275.293 94.6679Z" fill="black" style="fill:black;fill-opacity:1;"/>
<path fill-rule="evenodd" clip-rule="evenodd" d="M276 89C269.925 89 265 93.9249 265 100C265 106.075 269.925 111 276 111C282.075 111 287 106.075 287 100C287 93.9249 282.075 89 276 89ZM267 100C267 95.0294 271.029 91 276 91C280.971 91 285 95.0294 285 100C285 104.971 280.971 109 276 109C271.029 109 267 104.971 267 100Z" fill="black" style="fill:black;fill-opacity:1;"/>
<path d="M187.125 55.125H192.875C193.358 55.125 193.75 55.5167 193.75 56C193.75 56.4832 193.358 56.875 192.875 56.875L187.125 56.875L185.361 56.749L187.994 59.3813C188.335 59.723 188.335 60.277 187.994 60.6187C187.652 60.9604 187.098 60.9604 186.756 60.6187L182.756 56.6187C182.592 56.4546 182.5 56.2321 182.5 56C182.5 55.7679 182.592 55.5454 182.756 55.3813L186.756 51.3813C187.098 51.0396 187.652 51.0396 187.994 51.3813C188.335 51.723 188.335 52.277 187.994 52.6187L185.361 55.251L187.125 55.125Z" fill="black" style="fill:black;fill-opacity:1;"/>
<path fill-rule="evenodd" clip-rule="evenodd" d="M188 45.125C181.994 45.125 177.125 49.9939 177.125 56C177.125 62.0061 181.994 66.875 188 66.875C194.006 66.875 198.875 62.0061 198.875 56C198.875 49.9939 194.006 45.125 188 45.125ZM178.875 56C178.875 50.9604 182.96 46.875 188 46.875C193.04 46.875 197.125 50.9604 197.125 56C197.125 61.0396 193.04 65.125 188 65.125C182.96 65.125 178.875 61.0396 178.875 56Z" fill="black" style="fill:black;fill-opacity:1;"/>
<path d="M276.75 10.875V16.875C276.75 17.2892 276.414 17.625 276 17.625C275.586 17.625 275.25 17.2892 275.25 16.875V10.875L275.38 9.05571L272.53 11.9053C272.237 12.1982 271.763 12.1982 271.47 11.9053C271.177 11.6124 271.177 11.1376 271.47 10.8447L275.47 6.84467C275.61 6.70402 275.801 6.625 276 6.625C276.199 6.625 276.39 6.70402 276.53 6.84467L280.53 10.8447C280.823 11.1376 280.823 11.6124 280.53 11.9053C280.237 12.1982 279.763 12.1982 279.47 11.9053L276.62 9.05571L276.75 10.875Z" fill="black" style="fill:black;fill-opacity:1;"/>
<path fill-rule="evenodd" clip-rule="evenodd" d="M276 1.25C270.063 1.25 265.25 6.06294 265.25 12C265.25 17.9371 270.063 22.75 276 22.75C281.937 22.75 286.75 17.9371 286.75 12C286.75 6.06294 281.937 1.25 276 1.25ZM266.75 12C266.75 6.89137 270.891 2.75 276 2.75C281.109 2.75 285.25 6.89137 285.25 12C285.25 17.1086 281.109 21.25 276 21.25C270.891 21.25 266.75 17.1086 266.75 12Z" fill="black" style="fill:black;fill-opacity:1;"/>
<path d="M182.668 99.2929C182.48 99.4804 182.375 99.7348 182.375 100C182.375 100.265 182.48 100.52 182.668 100.707L186.668 104.707C187.058 105.098 187.692 105.098 188.082 104.707C188.473 104.317 188.473 103.683 188.082 103.293L185.667 100.878L187.375 101L192.875 101C193.427 101 193.875 100.552 193.875 100C193.875 99.4477 193.427 99 192.875 99L187.375 99L185.667 99.122L188.082 96.7071C188.473 96.3166 188.473 95.6834 188.082 95.2929C187.692 94.9024 187.058 94.9024 186.668 95.2929L182.668 99.2929Z" fill="black" style="fill:black;fill-opacity:1;"/>
<path fill-rule="evenodd" clip-rule="evenodd" d="M188 89C181.925 89 177 93.9249 177 100C177 106.075 181.925 111 188 111C194.075 111 199 106.075 199 100C199 93.9249 194.075 89 188 89ZM179 100C179 95.0294 183.029 91 188 91C192.971 91 197 95.0294 197 100C197 104.971 192.971 109 188 109C183.029 109 179 104.971 179 100Z" fill="black" style="fill:black;fill-opacity:1;"/>
<path d="M186.875 12.75H192.875C193.289 12.75 193.625 12.4142 193.625 12C193.625 11.5858 193.289 11.25 192.875 11.25H186.875L185.056 11.38L187.905 8.53033C188.198 8.23744 188.198 7.76256 187.905 7.46967C187.612 7.17678 187.138 7.17678 186.845 7.46967L182.845 11.4697C182.704 11.6103 182.625 11.8011 182.625 12C182.625 12.1989 182.704 12.3897 182.845 12.5303L186.845 16.5303C187.138 16.8232 187.612 16.8232 187.905 16.5303C188.198 16.2374 188.198 15.7626 187.905 15.4697L185.056 12.6201L186.875 12.75Z" fill="black" style="fill:black;fill-opacity:1;"/>
<path fill-rule="evenodd" clip-rule="evenodd" d="M188 1.25C182.063 1.25 177.25 6.06294 177.25 12C177.25 17.9371 182.063 22.75 188 22.75C193.937 22.75 198.75 17.9371 198.75 12C198.75 6.06294 193.937 1.25 188 1.25ZM178.75 12C178.75 6.89137 182.891 2.75 188 2.75C193.109 2.75 197.25 6.89137 197.25 12C197.25 17.1086 193.109 21.25 188 21.25C182.891 21.25 178.75 17.1086 178.75 12Z" fill="black" style="fill:black;fill-opacity:1;"/>
<path d="M322.375 58.5V54.6053L321.119 56.1187L317.119 60.1187C316.777 60.4604 316.223 60.4604 315.881 60.1187C315.54 59.777 315.54 59.223 315.881 58.8813L319.881 54.8813L321.395 53.625H317.5C317.017 53.625 316.625 53.2332 316.625 52.75C316.625 52.2668 317.017 51.875 317.5 51.875H323.25C323.733 51.875 324.125 52.2668 324.125 52.75V58.5C324.125 58.9832 323.733 59.375 323.25 59.375C322.767 59.375 322.375 58.9832 322.375 58.5Z" fill="black" style="fill:black;fill-opacity:1;"/>
<path fill-rule="evenodd" clip-rule="evenodd" d="M320 45.125C313.994 45.125 309.125 49.9939 309.125 56C309.125 62.0061 313.994 66.875 320 66.875C326.006 66.875 330.875 62.0061 330.875 56C330.875 49.9939 326.006 45.125 320 45.125ZM310.875 56C310.875 50.9604 314.96 46.875 320 46.875C325.04 46.875 329.125 50.9604 329.125 56C329.125 61.0396 325.04 65.125 320 65.125C314.96 65.125 310.875 61.0396 310.875 56Z" fill="black" style="fill:black;fill-opacity:1;"/>
<path d="M322.25 102.5V98.9292L320.957 100.457L317.207 104.207C316.817 104.598 316.183 104.598 315.793 104.207C315.402 103.817 315.402 103.183 315.793 102.793L319.543 99.0429L321.071 97.75H317.5C316.948 97.75 316.5 97.3023 316.5 96.75C316.5 96.1977 316.948 95.75 317.5 95.75H323.25C323.802 95.75 324.25 96.1977 324.25 96.75V102.5C324.25 103.052 323.802 103.5 323.25 103.5C322.698 103.5 322.25 103.052 322.25 102.5Z" fill="black" style="fill:black;fill-opacity:1;"/>
<path fill-rule="evenodd" clip-rule="evenodd" d="M320 89C313.925 89 309 93.9249 309 100C309 106.075 313.925 111 320 111C326.075 111 331 106.075 331 100C331 93.9249 326.075 89 320 89ZM311 100C311 95.0294 315.029 91 320 91C324.971 91 329 95.0294 329 100C329 104.971 324.971 109 320 109C315.029 109 311 104.971 311 100Z" fill="black" style="fill:black;fill-opacity:1;"/>
<path d="M322.5 14.5V10.2896L321.28 11.7803L317.03 16.0303C316.737 16.3232 316.263 16.3232 315.97 16.0303C315.677 15.7374 315.677 15.2626 315.97 14.9697L320.22 10.7197L321.71 9.5H317.5C317.086 9.5 316.75 9.16421 316.75 8.75C316.75 8.33579 317.086 8 317.5 8H323.25C323.664 8 324 8.33579 324 8.75V14.5C324 14.9142 323.664 15.25 323.25 15.25C322.836 15.25 322.5 14.9142 322.5 14.5Z" fill="black" style="fill:black;fill-opacity:1;"/>
<path fill-rule="evenodd" clip-rule="evenodd" d="M320 1.25C314.063 1.25 309.25 6.06294 309.25 12C309.25 17.9371 314.063 22.75 320 22.75C325.937 22.75 330.75 17.9371 330.75 12C330.75 6.06294 325.937 1.25 320 1.25ZM310.75 12C310.75 6.89137 314.891 2.75 320 2.75C325.109 2.75 329.25 6.89137 329.25 12C329.25 17.1086 325.109 21.25 320 21.25C314.891 21.25 310.75 17.1086 310.75 12Z" fill="black" style="fill:black;fill-opacity:1;"/>
<path d="M320.875 188.875H315.125C314.642 188.875 314.25 188.483 314.25 188C314.25 187.517 314.642 187.125 315.125 187.125L320.875 187.125L322.639 187.251L320.006 184.619C319.665 184.277 319.665 183.723 320.006 183.381C320.348 183.04 320.902 183.04 321.244 183.381L325.244 187.381C325.408 187.545 325.5 187.768 325.5 188C325.5 188.232 325.408 188.455 325.244 188.619L321.244 192.619C320.902 192.96 320.348 192.96 320.006 192.619C319.665 192.277 319.665 191.723 320.006 191.381L322.639 188.749L320.875 188.875Z" fill="black" style="fill:black;fill-opacity:1;"/>
<path fill-rule="evenodd" clip-rule="evenodd" d="M320 177.125C313.994 177.125 309.125 181.994 309.125 188C309.125 194.006 313.994 198.875 320 198.875C326.006 198.875 330.875 194.006 330.875 188C330.875 181.994 326.006 177.125 320 177.125ZM310.875 188C310.875 182.96 314.96 178.875 320 178.875C325.04 178.875 329.125 182.96 329.125 188C329.125 193.04 325.04 197.125 320 197.125C314.96 197.125 310.875 193.04 310.875 188Z" fill="black" style="fill:black;fill-opacity:1;"/>
<path d="M325.332 231.293C325.52 231.48 325.625 231.735 325.625 232C325.625 232.265 325.52 232.52 325.332 232.707L321.332 236.707C320.942 237.098 320.308 237.098 319.918 236.707C319.527 236.317 319.527 235.683 319.918 235.293L322.333 232.878L320.625 233L315.125 233C314.573 233 314.125 232.552 314.125 232C314.125 231.448 314.573 231 315.125 231L320.625 231L322.333 231.122L319.918 228.707C319.527 228.317 319.527 227.683 319.918 227.293C320.308 226.902 320.942 226.902 321.332 227.293L325.332 231.293Z" fill="black" style="fill:black;fill-opacity:1;"/>
<path fill-rule="evenodd" clip-rule="evenodd" d="M320 221C313.925 221 309 225.925 309 232C309 238.075 313.925 243 320 243C326.075 243 331 238.075 331 232C331 225.925 326.075 221 320 221ZM311 232C311 227.029 315.029 223 320 223C324.971 223 329 227.029 329 232C329 236.971 324.971 241 320 241C315.029 241 311 236.971 311 232Z" fill="black" style="fill:black;fill-opacity:1;"/>
<path d="M321.125 143.25H315.125C314.711 143.25 314.375 143.586 314.375 144C314.375 144.414 314.711 144.75 315.125 144.75H321.125L322.944 144.62L320.095 147.47C319.802 147.763 319.802 148.237 320.095 148.53C320.388 148.823 320.862 148.823 321.155 148.53L325.155 144.53C325.296 144.39 325.375 144.199 325.375 144C325.375 143.801 325.296 143.61 325.155 143.47L321.155 139.47C320.862 139.177 320.388 139.177 320.095 139.47C319.802 139.763 319.802 140.237 320.095 140.53L322.944 143.38L321.125 143.25Z" fill="black" style="fill:black;fill-opacity:1;"/>
<path fill-rule="evenodd" clip-rule="evenodd" d="M320 133.25C314.063 133.25 309.25 138.063 309.25 144C309.25 149.937 314.063 154.75 320 154.75C325.937 154.75 330.75 149.937 330.75 144C330.75 138.063 325.937 133.25 320 133.25ZM310.75 144C310.75 138.891 314.891 134.75 320 134.75C325.109 134.75 329.25 138.891 329.25 144C329.25 149.109 325.109 153.25 320 153.25C314.891 153.25 310.75 149.109 310.75 144Z" fill="black" style="fill:black;fill-opacity:1;"/>
<path d="M273.5 190.375H277.395L275.881 189.119L271.881 185.119C271.54 184.777 271.54 184.223 271.881 183.881C272.223 183.54 272.777 183.54 273.119 183.881L277.119 187.881L278.375 189.395V185.5C278.375 185.017 278.767 184.625 279.25 184.625C279.733 184.625 280.125 185.017 280.125 185.5V191.25C280.125 191.733 279.733 192.125 279.25 192.125H273.5C273.017 192.125 272.625 191.733 272.625 191.25C272.625 190.767 273.017 190.375 273.5 190.375Z" fill="black" style="fill:black;fill-opacity:1;"/>
<path fill-rule="evenodd" clip-rule="evenodd" d="M265.125 188C265.125 194.006 269.994 198.875 276 198.875C282.006 198.875 286.875 194.006 286.875 188C286.875 181.994 282.006 177.125 276 177.125C269.994 177.125 265.125 181.994 265.125 188ZM276 197.125C270.96 197.125 266.875 193.04 266.875 188C266.875 182.96 270.96 178.875 276 178.875C281.04 178.875 285.125 182.96 285.125 188C285.125 193.04 281.04 197.125 276 197.125Z" fill="black" style="fill:black;fill-opacity:1;"/>
<path d="M273.5 234.25H277.071L275.543 232.957L271.793 229.207C271.402 228.817 271.402 228.183 271.793 227.793C272.183 227.402 272.817 227.402 273.207 227.793L276.957 231.543L278.25 233.071V229.5C278.25 228.948 278.698 228.5 279.25 228.5C279.802 228.5 280.25 228.948 280.25 229.5V235.25C280.25 235.802 279.802 236.25 279.25 236.25H273.5C272.948 236.25 272.5 235.802 272.5 235.25C272.5 234.698 272.948 234.25 273.5 234.25Z" fill="black" style="fill:black;fill-opacity:1;"/>
<path fill-rule="evenodd" clip-rule="evenodd" d="M265 232C265 238.075 269.925 243 276 243C282.075 243 287 238.075 287 232C287 225.925 282.075 221 276 221C269.925 221 265 225.925 265 232ZM276 241C271.029 241 267 236.971 267 232C267 227.029 271.029 223 276 223C280.971 223 285 227.029 285 232C285 236.971 280.971 241 276 241Z" fill="black" style="fill:black;fill-opacity:1;"/>
<path d="M231.125 188.875V183.125C231.125 182.642 231.517 182.25 232 182.25C232.483 182.25 232.875 182.642 232.875 183.125L232.875 188.875L232.749 190.639L235.381 188.006C235.723 187.665 236.277 187.665 236.619 188.006C236.96 188.348 236.96 188.902 236.619 189.244L232.619 193.244C232.455 193.408 232.232 193.5 232 193.5C231.768 193.5 231.545 193.408 231.381 193.244L227.381 189.244C227.04 188.902 227.04 188.348 227.381 188.006C227.723 187.665 228.277 187.665 228.619 188.006L231.251 190.639L231.125 188.875Z" fill="black" style="fill:black;fill-opacity:1;"/>
<path fill-rule="evenodd" clip-rule="evenodd" d="M232 177.125C225.994 177.125 221.125 181.994 221.125 188C221.125 194.006 225.994 198.875 232 198.875C238.006 198.875 242.875 194.006 242.875 188C242.875 181.994 238.006 177.125 232 177.125ZM222.875 188C222.875 182.96 226.96 178.875 232 178.875C237.04 178.875 241.125 182.96 241.125 188C241.125 193.04 237.04 197.125 232 197.125C226.96 197.125 222.875 193.04 222.875 188Z" fill="black" style="fill:black;fill-opacity:1;"/>
<path d="M273.5 146.5H277.71L276.22 145.28L271.97 141.03C271.677 140.737 271.677 140.263 271.97 139.97C272.263 139.677 272.737 139.677 273.03 139.97L277.28 144.22L278.5 145.71V141.5C278.5 141.086 278.836 140.75 279.25 140.75C279.664 140.75 280 141.086 280 141.5V147.25C280 147.664 279.664 148 279.25 148H273.5C273.086 148 272.75 147.664 272.75 147.25C272.75 146.836 273.086 146.5 273.5 146.5Z" fill="black" style="fill:black;fill-opacity:1;"/>
<path fill-rule="evenodd" clip-rule="evenodd" d="M276 133.25C270.063 133.25 265.25 138.063 265.25 144C265.25 149.937 270.063 154.75 276 154.75C281.937 154.75 286.75 149.937 286.75 144C286.75 138.063 281.937 133.25 276 133.25ZM266.75 144C266.75 138.891 270.891 134.75 276 134.75C281.109 134.75 285.25 138.891 285.25 144C285.25 149.109 281.109 153.25 276 153.25C270.891 153.25 266.75 149.109 266.75 144Z" fill="black" style="fill:black;fill-opacity:1;"/>
<path d="M231.293 237.332C231.48 237.52 231.735 237.625 232 237.625C232.265 237.625 232.52 237.52 232.707 237.332L236.707 233.332C237.098 232.942 237.098 232.308 236.707 231.918C236.317 231.527 235.683 231.527 235.293 231.918L232.878 234.333L233 232.625L233 227.125C233 226.573 232.552 226.125 232 226.125C231.448 226.125 231 226.573 231 227.125L231 232.625L231.122 234.333L228.707 231.918C228.317 231.527 227.683 231.527 227.293 231.918C226.902 232.308 226.902 232.942 227.293 233.332L231.293 237.332Z" fill="black" style="fill:black;fill-opacity:1;"/>
<path fill-rule="evenodd" clip-rule="evenodd" d="M232 221C225.925 221 221 225.925 221 232C221 238.075 225.925 243 232 243C238.075 243 243 238.075 243 232C243 225.925 238.075 221 232 221ZM223 232C223 227.029 227.029 223 232 223C236.971 223 241 227.029 241 232C241 236.971 236.971 241 232 241C227.029 241 223 236.971 223 232Z" fill="black" style="fill:black;fill-opacity:1;"/>
<path d="M185.625 185.5V189.395L186.881 187.881L190.881 183.881C191.223 183.54 191.777 183.54 192.119 183.881C192.46 184.223 192.46 184.777 192.119 185.119L188.119 189.119L186.605 190.375H190.5C190.983 190.375 191.375 190.767 191.375 191.25C191.375 191.733 190.983 192.125 190.5 192.125H184.75C184.267 192.125 183.875 191.733 183.875 191.25V185.5C183.875 185.017 184.267 184.625 184.75 184.625C185.233 184.625 185.625 185.017 185.625 185.5Z" fill="black" style="fill:black;fill-opacity:1;"/>
<path fill-rule="evenodd" clip-rule="evenodd" d="M177.125 188C177.125 194.006 181.994 198.875 188 198.875C194.006 198.875 198.875 194.006 198.875 188C198.875 181.994 194.006 177.125 188 177.125C181.994 177.125 177.125 181.994 177.125 188ZM188 197.125C182.96 197.125 178.875 193.04 178.875 188C178.875 182.96 182.96 178.875 188 178.875C193.04 178.875 197.125 182.96 197.125 188C197.125 193.04 193.04 197.125 188 197.125Z" fill="black" style="fill:black;fill-opacity:1;"/>
<path d="M232.75 145.125V139.125C232.75 138.711 232.414 138.375 232 138.375C231.586 138.375 231.25 138.711 231.25 139.125V145.125L231.38 146.944L228.53 144.095C228.237 143.802 227.763 143.802 227.47 144.095C227.177 144.388 227.177 144.862 227.47 145.155L231.47 149.155C231.61 149.296 231.801 149.375 232 149.375C232.199 149.375 232.39 149.296 232.53 149.155L236.53 145.155C236.823 144.862 236.823 144.388 236.53 144.095C236.237 143.802 235.763 143.802 235.47 144.095L232.62 146.944L232.75 145.125Z" fill="black" style="fill:black;fill-opacity:1;"/>
<path fill-rule="evenodd" clip-rule="evenodd" d="M232 133.25C226.063 133.25 221.25 138.063 221.25 144C221.25 149.937 226.063 154.75 232 154.75C237.937 154.75 242.75 149.937 242.75 144C242.75 138.063 237.937 133.25 232 133.25ZM222.75 144C222.75 138.891 226.891 134.75 232 134.75C237.109 134.75 241.25 138.891 241.25 144C241.25 149.109 237.109 153.25 232 153.25C226.891 153.25 222.75 149.109 222.75 144Z" fill="black" style="fill:black;fill-opacity:1;"/>
<path d="M185.75 229.5V233.071L187.043 231.543L190.793 227.793C191.183 227.402 191.817 227.402 192.207 227.793C192.598 228.183 192.598 228.817 192.207 229.207L188.457 232.957L186.929 234.25H190.5C191.052 234.25 191.5 234.698 191.5 235.25C191.5 235.802 191.052 236.25 190.5 236.25H184.75C184.198 236.25 183.75 235.802 183.75 235.25V229.5C183.75 228.948 184.198 228.5 184.75 228.5C185.302 228.5 185.75 228.948 185.75 229.5Z" fill="black" style="fill:black;fill-opacity:1;"/>
<path fill-rule="evenodd" clip-rule="evenodd" d="M177 232C177 238.075 181.925 243 188 243C194.075 243 199 238.075 199 232C199 225.925 194.075 221 188 221C181.925 221 177 225.925 177 232ZM188 241C183.029 241 179 236.971 179 232C179 227.029 183.029 223 188 223C192.971 223 197 227.029 197 232C197 236.971 192.971 241 188 241Z" fill="black" style="fill:black;fill-opacity:1;"/>
<path d="M185.5 141.5V145.71L186.72 144.22L190.97 139.97C191.263 139.677 191.737 139.677 192.03 139.97C192.323 140.263 192.323 140.737 192.03 141.03L187.78 145.28L186.29 146.5H190.5C190.914 146.5 191.25 146.836 191.25 147.25C191.25 147.664 190.914 148 190.5 148H184.75C184.336 148 184 147.664 184 147.25V141.5C184 141.086 184.336 140.75 184.75 140.75C185.164 140.75 185.5 141.086 185.5 141.5Z" fill="black" style="fill:black;fill-opacity:1;"/>
<path fill-rule="evenodd" clip-rule="evenodd" d="M188 133.25C182.063 133.25 177.25 138.063 177.25 144C177.25 149.937 182.063 154.75 188 154.75C193.937 154.75 198.75 149.937 198.75 144C198.75 138.063 193.937 133.25 188 133.25ZM178.75 144C178.75 138.891 182.891 134.75 188 134.75C193.109 134.75 197.25 138.891 197.25 144C197.25 149.109 193.109 153.25 188 153.25C182.891 153.25 178.75 149.109 178.75 144Z" fill="black" style="fill:black;fill-opacity:1;"/>
<path d="M404.5 7.75C404.301 7.75 404.11 7.82902 403.97 7.96967C403.829 8.11032 403.75 8.30109 403.75 8.5L403.75 14.625C403.75 15.0392 404.086 15.375 404.5 15.375C404.914 15.375 405.25 15.0392 405.25 14.625L405.25 10.0396L406.47 11.5303L411.22 16.2803C411.513 16.5732 411.987 16.5732 412.28 16.2803C412.573 15.9874 412.573 15.5126 412.28 15.2197L407.53 10.4697L406.04 9.25L410.625 9.25C411.039 9.25 411.375 8.91421 411.375 8.5C411.375 8.08579 411.039 7.75 410.625 7.75H404.5Z" fill="black" style="fill:black;fill-opacity:1;"/>
<path fill-rule="evenodd" clip-rule="evenodd" d="M405.667 1.75C404.435 1.74999 403.464 1.74999 402.683 1.8138C401.887 1.8789 401.221 2.01413 400.617 2.32222C399.629 2.82555 398.826 3.6287 398.322 4.61655C398.014 5.2212 397.879 5.88657 397.814 6.68334C397.75 7.46432 397.75 8.43478 397.75 9.66669V14.3333C397.75 15.5652 397.75 16.5357 397.814 17.3167C397.879 18.1134 398.014 18.7788 398.322 19.3834C398.826 20.3713 399.629 21.1744 400.617 21.6778C401.221 21.9859 401.887 22.1211 402.683 22.1862C403.464 22.25 404.435 22.25 405.667 22.25H410.333C411.565 22.25 412.536 22.25 413.317 22.1862C414.113 22.1211 414.779 21.9859 415.383 21.6778C416.371 21.1744 417.174 20.3713 417.678 19.3834C417.986 18.7788 418.121 18.1134 418.186 17.3167C418.25 16.5357 418.25 15.5652 418.25 14.3333V9.66667C418.25 8.43477 418.25 7.46431 418.186 6.68333C418.121 5.88657 417.986 5.2212 417.678 4.61655C417.174 3.6287 416.371 2.82555 415.383 2.32222C414.779 2.01413 414.113 1.8789 413.317 1.8138C412.536 1.74999 411.565 1.74999 410.333 1.75H405.667ZM401.298 3.65873C401.655 3.47634 402.101 3.36634 402.805 3.30882C403.518 3.25058 404.428 3.25 405.7 3.25H410.3C411.572 3.25 412.482 3.25058 413.195 3.30882C413.899 3.36634 414.345 3.47634 414.702 3.65873C415.408 4.01825 415.982 4.59193 416.341 5.29754C416.524 5.65549 416.634 6.10148 416.691 6.80548C416.749 7.51824 416.75 8.42751 416.75 9.7V14.3C416.75 15.5725 416.749 16.4818 416.691 17.1945C416.634 17.8985 416.524 18.3445 416.341 18.7025C415.982 19.4081 415.408 19.9817 414.702 20.3413C414.345 20.5237 413.899 20.6337 413.195 20.6912C412.482 20.7494 411.572 20.75 410.3 20.75H405.7C404.428 20.75 403.518 20.7494 402.805 20.6912C402.101 20.6337 401.655 20.5237 401.298 20.3413C400.592 19.9817 400.018 19.4081 399.659 18.7025C399.476 18.3445 399.366 17.8985 399.309 17.1945C399.251 16.4818 399.25 15.5725 399.25 14.3V9.7C399.25 8.42751 399.251 7.51824 399.309 6.80548C399.366 6.10148 399.476 5.65549 399.659 5.29754C400.018 4.59193 400.592 4.01825 401.298 3.65873Z" fill="black" style="fill:black;fill-opacity:1;"/>
<path fill-rule="evenodd" clip-rule="evenodd" d="M405.662 45.625C404.434 45.625 403.459 45.625 402.673 45.6892C401.869 45.7549 401.185 45.8923 400.56 46.2108C399.548 46.7262 398.726 47.5484 398.211 48.5598C397.892 49.185 397.755 49.8687 397.689 50.6732C397.625 51.4593 397.625 52.434 397.625 53.6616V58.3384C397.625 59.566 397.625 60.5407 397.689 61.3268C397.755 62.1313 397.892 62.815 398.211 63.4402C398.726 64.4516 399.548 65.2738 400.56 65.7892C401.185 66.1077 401.869 66.2451 402.673 66.3108C403.459 66.375 404.434 66.375 405.662 66.375H410.338C411.566 66.375 412.541 66.375 413.327 66.3108C414.131 66.2451 414.815 66.1077 415.44 65.7892C416.452 65.2738 417.274 64.4516 417.789 63.4402C418.108 62.815 418.245 62.1313 418.311 61.3268C418.375 60.5407 418.375 59.566 418.375 58.3384V53.6616C418.375 52.434 418.375 51.4593 418.311 50.6732C418.245 49.8687 418.108 49.185 417.789 48.5598C417.274 47.5484 416.452 46.7262 415.44 46.2108C414.815 45.8923 414.131 45.7549 413.327 45.6892C412.541 45.625 411.566 45.625 410.338 45.625H405.662ZM401.354 47.7701C401.692 47.5982 402.119 47.4903 402.816 47.4334C403.522 47.3757 404.425 47.375 405.7 47.375H410.3C411.575 47.375 412.478 47.3757 413.184 47.4334C413.881 47.4903 414.308 47.5982 414.646 47.7701C415.328 48.1176 415.882 48.6722 416.23 49.3543C416.402 49.6917 416.51 50.1194 416.567 50.8157C416.624 51.5222 416.625 52.4254 416.625 53.7V58.3C416.625 59.5746 416.624 60.4778 416.567 61.1843C416.51 61.8806 416.402 62.3083 416.23 62.6457C415.882 63.3278 415.328 63.8824 414.646 64.2299C414.308 64.4018 413.881 64.5097 413.184 64.5666C412.478 64.6243 411.575 64.625 410.3 64.625H405.7C404.425 64.625 403.522 64.6243 402.816 64.5666C402.119 64.5097 401.692 64.4018 401.354 64.2299C400.672 63.8824 400.118 63.3278 399.77 62.6457C399.598 62.3083 399.49 61.8806 399.433 61.1843C399.376 60.4778 399.375 59.5746 399.375 58.3V53.7C399.375 52.4254 399.376 51.5222 399.433 50.8157C399.49 50.1194 399.598 49.6917 399.77 49.3543C400.118 48.6722 400.672 48.1176 401.354 47.7701Z" fill="black" style="fill:black;fill-opacity:1;"/>
<path d="M403.881 51.8813C404.045 51.7172 404.268 51.625 404.5 51.625H410.625C411.108 51.625 411.5 52.0168 411.5 52.5C411.5 52.9833 411.108 53.375 410.625 53.375L406.355 53.375L407.869 54.6312L412.369 59.1313C412.71 59.473 412.71 60.027 412.369 60.3687C412.027 60.7104 411.473 60.7104 411.131 60.3687L406.631 55.8687L405.375 54.3552L405.375 58.625C405.375 59.1082 404.983 59.5 404.5 59.5C404.017 59.5 403.625 59.1082 403.625 58.625L403.625 52.5C403.625 52.2679 403.717 52.0454 403.881 51.8813Z" fill="black" style="fill:black;fill-opacity:1;"/>
<path d="M404.5 95.5C404.235 95.5 403.98 95.6054 403.793 95.7929C403.605 95.9804 403.5 96.2348 403.5 96.5L403.5 102.625C403.5 103.177 403.948 103.625 404.5 103.625C405.052 103.625 405.5 103.177 405.5 102.625L405.5 98.6791L406.793 100.207L411.043 104.457C411.433 104.848 412.067 104.848 412.457 104.457C412.848 104.067 412.848 103.433 412.457 103.043L408.207 98.7929L406.679 97.5H410.625C411.177 97.5 411.625 97.0523 411.625 96.5C411.625 95.9477 411.177 95.5 410.625 95.5H404.5Z" fill="black" style="fill:black;fill-opacity:1;"/>
<path fill-rule="evenodd" clip-rule="evenodd" d="M405.657 89.5C404.433 89.5 403.454 89.5 402.663 89.5646C401.851 89.631 401.149 89.7704 400.503 90.0995C399.468 90.6268 398.627 91.4682 398.099 92.5031C397.77 93.1488 397.631 93.8508 397.565 94.663C397.5 95.4542 397.5 96.4333 397.5 97.6567V102.343C397.5 103.567 397.5 104.546 397.565 105.337C397.631 106.149 397.77 106.851 398.099 107.497C398.627 108.532 399.468 109.373 400.503 109.901C401.149 110.23 401.851 110.369 402.663 110.435C403.454 110.5 404.433 110.5 405.657 110.5H410.343C411.567 110.5 412.546 110.5 413.337 110.435C414.149 110.369 414.851 110.23 415.497 109.901C416.532 109.373 417.373 108.532 417.901 107.497C418.23 106.851 418.369 106.149 418.435 105.337C418.5 104.546 418.5 103.567 418.5 102.343V97.6566C418.5 96.4333 418.5 95.4542 418.435 94.663C418.369 93.8508 418.23 93.1488 417.901 92.5031C417.373 91.4682 416.532 90.6268 415.497 90.0995C414.851 89.7704 414.149 89.631 413.337 89.5646C412.546 89.5 411.567 89.5 410.343 89.5H405.657ZM401.411 91.8815C401.728 91.72 402.137 91.6142 402.826 91.558C403.526 91.5008 404.423 91.5 405.7 91.5H410.3C411.577 91.5 412.474 91.5008 413.174 91.558C413.863 91.6142 414.272 91.72 414.589 91.8815C415.248 92.217 415.783 92.7525 416.119 93.411C416.28 93.7279 416.386 94.1373 416.442 94.8258C416.499 95.5261 416.5 96.4234 416.5 97.7V102.3C416.5 103.577 416.499 104.474 416.442 105.174C416.386 105.863 416.28 106.272 416.119 106.589C415.783 107.248 415.248 107.783 414.589 108.119C414.272 108.28 413.863 108.386 413.174 108.442C412.474 108.499 411.577 108.5 410.3 108.5H405.7C404.423 108.5 403.526 108.499 402.826 108.442C402.137 108.386 401.728 108.28 401.411 108.119C400.752 107.783 400.217 107.248 399.881 106.589C399.72 106.272 399.614 105.863 399.558 105.174C399.501 104.474 399.5 103.577 399.5 102.3V97.7C399.5 96.4234 399.501 95.5261 399.558 94.8258C399.614 94.1373 399.72 93.7279 399.881 93.411C400.217 92.7525 400.752 92.217 401.411 91.8815Z" fill="black" style="fill:black;fill-opacity:1;"/>
<path d="M452.75 10.875V16.875C452.75 17.2892 452.414 17.625 452 17.625C451.586 17.625 451.25 17.2892 451.25 16.875V10.875L451.38 9.05571L448.53 11.9053C448.237 12.1982 447.763 12.1982 447.47 11.9053C447.177 11.6124 447.177 11.1376 447.47 10.8447L451.47 6.84467C451.61 6.70402 451.801 6.625 452 6.625C452.199 6.625 452.39 6.70402 452.53 6.84467L456.53 10.8447C456.823 11.1376 456.823 11.6124 456.53 11.9053C456.237 12.1982 455.763 12.1982 455.47 11.9053L452.62 9.05571L452.75 10.875Z" fill="black" style="fill:black;fill-opacity:1;"/>
<path fill-rule="evenodd" clip-rule="evenodd" d="M449.667 1.75C448.435 1.74999 447.464 1.74999 446.683 1.8138C445.887 1.8789 445.221 2.01413 444.617 2.32222C443.629 2.82555 442.826 3.6287 442.322 4.61655C442.014 5.2212 441.879 5.88657 441.814 6.68334C441.75 7.46432 441.75 8.43478 441.75 9.66669V14.3333C441.75 15.5652 441.75 16.5357 441.814 17.3167C441.879 18.1134 442.014 18.7788 442.322 19.3834C442.826 20.3713 443.629 21.1744 444.617 21.6778C445.221 21.9859 445.887 22.1211 446.683 22.1862C447.464 22.25 448.435 22.25 449.667 22.25H454.333C455.565 22.25 456.536 22.25 457.317 22.1862C458.113 22.1211 458.779 21.9859 459.383 21.6778C460.371 21.1744 461.174 20.3713 461.678 19.3834C461.986 18.7788 462.121 18.1134 462.186 17.3167C462.25 16.5357 462.25 15.5652 462.25 14.3333V9.66667C462.25 8.43477 462.25 7.46431 462.186 6.68333C462.121 5.88657 461.986 5.2212 461.678 4.61655C461.174 3.6287 460.371 2.82555 459.383 2.32222C458.779 2.01413 458.113 1.8789 457.317 1.8138C456.536 1.74999 455.565 1.74999 454.333 1.75H449.667ZM445.298 3.65873C445.655 3.47634 446.101 3.36634 446.805 3.30882C447.518 3.25058 448.428 3.25 449.7 3.25H454.3C455.572 3.25 456.482 3.25058 457.195 3.30882C457.899 3.36634 458.345 3.47634 458.702 3.65873C459.408 4.01825 459.982 4.59193 460.341 5.29754C460.524 5.65549 460.634 6.10148 460.691 6.80548C460.749 7.51824 460.75 8.42751 460.75 9.7V14.3C460.75 15.5725 460.749 16.4818 460.691 17.1945C460.634 17.8985 460.524 18.3445 460.341 18.7025C459.982 19.4081 459.408 19.9817 458.702 20.3413C458.345 20.5237 457.899 20.6337 457.195 20.6912C456.482 20.7494 455.572 20.75 454.3 20.75H449.7C448.428 20.75 447.518 20.7494 446.805 20.6912C446.101 20.6337 445.655 20.5237 445.298 20.3413C444.592 19.9817 444.018 19.4081 443.659 18.7025C443.476 18.3445 443.366 17.8985 443.309 17.1945C443.251 16.4818 443.25 15.5725 443.25 14.3V9.7C443.25 8.42751 443.251 7.51824 443.309 6.80548C443.366 6.10148 443.476 5.65549 443.659 5.29754C444.018 4.59193 444.592 4.01825 445.298 3.65873Z" fill="black" style="fill:black;fill-opacity:1;"/>
<path d="M451.125 55.125V60.875C451.125 61.3582 451.517 61.75 452 61.75C452.483 61.75 452.875 61.3582 452.875 60.875L452.875 55.125L452.749 53.3615L455.381 55.9937C455.723 56.3354 456.277 56.3354 456.619 55.9937C456.96 55.652 456.96 55.098 456.619 54.7563L452.619 50.7563C452.455 50.5922 452.232 50.5 452 50.5C451.768 50.5 451.545 50.5922 451.381 50.7563L447.381 54.7563C447.04 55.098 447.04 55.652 447.381 55.9937C447.723 56.3354 448.277 56.3354 448.619 55.9937L451.251 53.3615L451.125 55.125Z" fill="black" style="fill:black;fill-opacity:1;"/>
<path fill-rule="evenodd" clip-rule="evenodd" d="M449.662 45.625C448.434 45.625 447.459 45.625 446.673 45.6892C445.869 45.7549 445.185 45.8923 444.56 46.2108C443.548 46.7262 442.726 47.5484 442.211 48.5598C441.892 49.185 441.755 49.8687 441.689 50.6732C441.625 51.4593 441.625 52.434 441.625 53.6616V58.3384C441.625 59.566 441.625 60.5407 441.689 61.3268C441.755 62.1313 441.892 62.815 442.211 63.4402C442.726 64.4516 443.548 65.2738 444.56 65.7892C445.185 66.1077 445.869 66.2451 446.673 66.3108C447.459 66.375 448.434 66.375 449.662 66.375H454.338C455.566 66.375 456.541 66.375 457.327 66.3108C458.131 66.2451 458.815 66.1077 459.44 65.7892C460.452 65.2738 461.274 64.4516 461.789 63.4402C462.108 62.815 462.245 62.1313 462.311 61.3268C462.375 60.5407 462.375 59.566 462.375 58.3384V53.6616C462.375 52.434 462.375 51.4593 462.311 50.6732C462.245 49.8687 462.108 49.185 461.789 48.5598C461.274 47.5484 460.452 46.7262 459.44 46.2108C458.815 45.8923 458.131 45.7549 457.327 45.6892C456.541 45.625 455.566 45.625 454.338 45.625H449.662ZM445.354 47.7701C445.692 47.5982 446.119 47.4903 446.816 47.4334C447.522 47.3757 448.425 47.375 449.7 47.375H454.3C455.575 47.375 456.478 47.3757 457.184 47.4334C457.881 47.4903 458.308 47.5982 458.646 47.7701C459.328 48.1176 459.882 48.6722 460.23 49.3543C460.402 49.6917 460.51 50.1194 460.567 50.8157C460.624 51.5222 460.625 52.4254 460.625 53.7V58.3C460.625 59.5746 460.624 60.4778 460.567 61.1843C460.51 61.8806 460.402 62.3083 460.23 62.6457C459.882 63.3278 459.328 63.8824 458.646 64.2299C458.308 64.4018 457.881 64.5097 457.184 64.5666C456.478 64.6243 455.575 64.625 454.3 64.625H449.7C448.425 64.625 447.522 64.6243 446.816 64.5666C446.119 64.5097 445.692 64.4018 445.354 64.2299C444.672 63.8824 444.118 63.3278 443.77 62.6457C443.598 62.3083 443.49 61.8806 443.433 61.1843C443.376 60.4778 443.375 59.5746 443.375 58.3V53.7C443.375 52.4254 443.376 51.5222 443.433 50.8157C443.49 50.1194 443.598 49.6917 443.77 49.3543C444.118 48.6722 444.672 48.1176 445.354 47.7701Z" fill="black" style="fill:black;fill-opacity:1;"/>
<path d="M451.293 94.6679C451.48 94.4804 451.735 94.375 452 94.375C452.265 94.375 452.52 94.4804 452.707 94.6679L456.707 98.6679C457.098 99.0584 457.098 99.6916 456.707 100.082C456.317 100.473 455.683 100.473 455.293 100.082L452.878 97.6672L453 99.375L453 104.875C453 105.427 452.552 105.875 452 105.875C451.448 105.875 451 105.427 451 104.875L451 99.3751L451.122 97.6672L448.707 100.082C448.317 100.473 447.683 100.473 447.293 100.082C446.902 99.6916 446.902 99.0584 447.293 98.6679L451.293 94.6679Z" fill="black" style="fill:black;fill-opacity:1;"/>
<path fill-rule="evenodd" clip-rule="evenodd" d="M449.657 89.5C448.433 89.5 447.454 89.5 446.663 89.5646C445.851 89.631 445.149 89.7704 444.503 90.0995C443.468 90.6268 442.627 91.4682 442.099 92.5031C441.77 93.1488 441.631 93.8508 441.565 94.663C441.5 95.4542 441.5 96.4333 441.5 97.6567V102.343C441.5 103.567 441.5 104.546 441.565 105.337C441.631 106.149 441.77 106.851 442.099 107.497C442.627 108.532 443.468 109.373 444.503 109.901C445.149 110.23 445.851 110.369 446.663 110.435C447.454 110.5 448.433 110.5 449.657 110.5H454.343C455.567 110.5 456.546 110.5 457.337 110.435C458.149 110.369 458.851 110.23 459.497 109.901C460.532 109.373 461.373 108.532 461.901 107.497C462.23 106.851 462.369 106.149 462.435 105.337C462.5 104.546 462.5 103.567 462.5 102.343V97.6566C462.5 96.4333 462.5 95.4542 462.435 94.663C462.369 93.8508 462.23 93.1488 461.901 92.5031C461.373 91.4682 460.532 90.6268 459.497 90.0995C458.851 89.7704 458.149 89.631 457.337 89.5646C456.546 89.5 455.567 89.5 454.343 89.5H449.657ZM445.411 91.8815C445.728 91.72 446.137 91.6142 446.826 91.558C447.526 91.5008 448.423 91.5 449.7 91.5H454.3C455.577 91.5 456.474 91.5008 457.174 91.558C457.863 91.6142 458.272 91.72 458.589 91.8815C459.248 92.217 459.783 92.7525 460.119 93.411C460.28 93.7279 460.386 94.1373 460.442 94.8258C460.499 95.5261 460.5 96.4234 460.5 97.7V102.3C460.5 103.577 460.499 104.474 460.442 105.174C460.386 105.863 460.28 106.272 460.119 106.589C459.783 107.248 459.248 107.783 458.589 108.119C458.272 108.28 457.863 108.386 457.174 108.442C456.474 108.499 455.577 108.5 454.3 108.5H449.7C448.423 108.5 447.526 108.499 446.826 108.442C446.137 108.386 445.728 108.28 445.411 108.119C444.752 107.783 444.217 107.248 443.881 106.589C443.72 106.272 443.614 105.863 443.558 105.174C443.501 104.474 443.5 103.577 443.5 102.3V97.7C443.5 96.4234 443.501 95.5261 443.558 94.8258C443.614 94.1373 443.72 93.7279 443.881 93.411C444.217 92.7525 444.752 92.217 445.411 91.8815Z" fill="black" style="fill:black;fill-opacity:1;"/>
<path d="M362.875 12.75H368.875C369.289 12.75 369.625 12.4142 369.625 12C369.625 11.5858 369.289 11.25 368.875 11.25H362.875L361.056 11.38L363.905 8.53033C364.198 8.23744 364.198 7.76256 363.905 7.46967C363.612 7.17678 363.138 7.17678 362.845 7.46967L358.845 11.4697C358.704 11.6103 358.625 11.8011 358.625 12C358.625 12.1989 358.704 12.3897 358.845 12.5303L362.845 16.5303C363.138 16.8232 363.612 16.8232 363.905 16.5303C364.198 16.2374 364.198 15.7626 363.905 15.4697L361.056 12.6201L362.875 12.75Z" fill="black" style="fill:black;fill-opacity:1;"/>
<path fill-rule="evenodd" clip-rule="evenodd" d="M361.667 1.75C360.435 1.74999 359.464 1.74999 358.683 1.8138C357.887 1.8789 357.221 2.01413 356.617 2.32222C355.629 2.82555 354.826 3.6287 354.322 4.61655C354.014 5.2212 353.879 5.88657 353.814 6.68334C353.75 7.46432 353.75 8.43478 353.75 9.66669V14.3333C353.75 15.5652 353.75 16.5357 353.814 17.3167C353.879 18.1134 354.014 18.7788 354.322 19.3834C354.826 20.3713 355.629 21.1744 356.617 21.6778C357.221 21.9859 357.887 22.1211 358.683 22.1862C359.464 22.25 360.435 22.25 361.667 22.25H366.333C367.565 22.25 368.536 22.25 369.317 22.1862C370.113 22.1211 370.779 21.9859 371.383 21.6778C372.371 21.1744 373.174 20.3713 373.678 19.3834C373.986 18.7788 374.121 18.1134 374.186 17.3167C374.25 16.5357 374.25 15.5652 374.25 14.3333V9.66667C374.25 8.43477 374.25 7.46431 374.186 6.68333C374.121 5.88657 373.986 5.2212 373.678 4.61655C373.174 3.6287 372.371 2.82555 371.383 2.32222C370.779 2.01413 370.113 1.8789 369.317 1.8138C368.536 1.74999 367.565 1.74999 366.333 1.75H361.667ZM357.298 3.65873C357.655 3.47634 358.101 3.36634 358.805 3.30882C359.518 3.25058 360.428 3.25 361.7 3.25H366.3C367.572 3.25 368.482 3.25058 369.195 3.30882C369.899 3.36634 370.345 3.47634 370.702 3.65873C371.408 4.01825 371.982 4.59193 372.341 5.29754C372.524 5.65549 372.634 6.10148 372.691 6.80548C372.749 7.51824 372.75 8.42751 372.75 9.7V14.3C372.75 15.5725 372.749 16.4818 372.691 17.1945C372.634 17.8985 372.524 18.3445 372.341 18.7025C371.982 19.4081 371.408 19.9817 370.702 20.3413C370.345 20.5237 369.899 20.6337 369.195 20.6912C368.482 20.7494 367.572 20.75 366.3 20.75H361.7C360.428 20.75 359.518 20.7494 358.805 20.6912C358.101 20.6337 357.655 20.5237 357.298 20.3413C356.592 19.9817 356.018 19.4081 355.659 18.7025C355.476 18.3445 355.366 17.8985 355.309 17.1945C355.251 16.4818 355.25 15.5725 355.25 14.3V9.7C355.25 8.42751 355.251 7.51824 355.309 6.80548C355.366 6.10148 355.476 5.65549 355.659 5.29754C356.018 4.59193 356.592 4.01825 357.298 3.65873Z" fill="black" style="fill:black;fill-opacity:1;"/>
<path d="M363.125 55.125H368.875C369.358 55.125 369.75 55.5167 369.75 56C369.75 56.4832 369.358 56.875 368.875 56.875L363.125 56.875L361.361 56.749L363.994 59.3813C364.335 59.723 364.335 60.277 363.994 60.6187C363.652 60.9604 363.098 60.9604 362.756 60.6187L358.756 56.6187C358.592 56.4546 358.5 56.2321 358.5 56C358.5 55.7679 358.592 55.5454 358.756 55.3813L362.756 51.3813C363.098 51.0396 363.652 51.0396 363.994 51.3813C364.335 51.723 364.335 52.277 363.994 52.6187L361.361 55.251L363.125 55.125Z" fill="black" style="fill:black;fill-opacity:1;"/>
<path fill-rule="evenodd" clip-rule="evenodd" d="M361.662 45.625C360.434 45.625 359.459 45.625 358.673 45.6892C357.869 45.7549 357.185 45.8923 356.56 46.2108C355.548 46.7262 354.726 47.5484 354.211 48.5598C353.892 49.185 353.755 49.8687 353.689 50.6732C353.625 51.4593 353.625 52.434 353.625 53.6616V58.3384C353.625 59.566 353.625 60.5407 353.689 61.3268C353.755 62.1313 353.892 62.815 354.211 63.4402C354.726 64.4516 355.548 65.2738 356.56 65.7892C357.185 66.1077 357.869 66.2451 358.673 66.3108C359.459 66.375 360.434 66.375 361.662 66.375H366.338C367.566 66.375 368.541 66.375 369.327 66.3108C370.131 66.2451 370.815 66.1077 371.44 65.7892C372.452 65.2738 373.274 64.4516 373.789 63.4402C374.108 62.815 374.245 62.1313 374.311 61.3268C374.375 60.5407 374.375 59.566 374.375 58.3384V53.6616C374.375 52.434 374.375 51.4593 374.311 50.6732C374.245 49.8687 374.108 49.185 373.789 48.5598C373.274 47.5484 372.452 46.7262 371.44 46.2108C370.815 45.8923 370.131 45.7549 369.327 45.6892C368.541 45.625 367.566 45.625 366.338 45.625H361.662ZM357.354 47.7701C357.692 47.5982 358.119 47.4903 358.816 47.4334C359.522 47.3757 360.425 47.375 361.7 47.375H366.3C367.575 47.375 368.478 47.3757 369.184 47.4334C369.881 47.4903 370.308 47.5982 370.646 47.7701C371.328 48.1176 371.882 48.6722 372.23 49.3543C372.402 49.6917 372.51 50.1194 372.567 50.8157C372.624 51.5222 372.625 52.4254 372.625 53.7V58.3C372.625 59.5746 372.624 60.4778 372.567 61.1843C372.51 61.8806 372.402 62.3083 372.23 62.6457C371.882 63.3278 371.328 63.8824 370.646 64.2299C370.308 64.4018 369.881 64.5097 369.184 64.5666C368.478 64.6243 367.575 64.625 366.3 64.625H361.7C360.425 64.625 359.522 64.6243 358.816 64.5666C358.119 64.5097 357.692 64.4018 357.354 64.2299C356.672 63.8824 356.118 63.3278 355.77 62.6457C355.598 62.3083 355.49 61.8806 355.433 61.1843C355.376 60.4778 355.375 59.5746 355.375 58.3V53.7C355.375 52.4254 355.376 51.5222 355.433 50.8157C355.49 50.1194 355.598 49.6917 355.77 49.3543C356.118 48.6722 356.672 48.1176 357.354 47.7701Z" fill="black" style="fill:black;fill-opacity:1;"/>
<path d="M358.668 99.2929C358.48 99.4804 358.375 99.7348 358.375 100C358.375 100.265 358.48 100.52 358.668 100.707L362.668 104.707C363.058 105.098 363.692 105.098 364.082 104.707C364.473 104.317 364.473 103.683 364.082 103.293L361.667 100.878L363.375 101L368.875 101C369.427 101 369.875 100.552 369.875 100C369.875 99.4477 369.427 99 368.875 99L363.375 99L361.667 99.122L364.082 96.7071C364.473 96.3166 364.473 95.6834 364.082 95.2929C363.692 94.9024 363.058 94.9024 362.668 95.2929L358.668 99.2929Z" fill="black" style="fill:black;fill-opacity:1;"/>
<path fill-rule="evenodd" clip-rule="evenodd" d="M361.657 89.5C360.433 89.5 359.454 89.5 358.663 89.5646C357.851 89.631 357.149 89.7704 356.503 90.0995C355.468 90.6268 354.627 91.4682 354.099 92.5031C353.77 93.1488 353.631 93.8508 353.565 94.663C353.5 95.4542 353.5 96.4333 353.5 97.6567V102.343C353.5 103.567 353.5 104.546 353.565 105.337C353.631 106.149 353.77 106.851 354.099 107.497C354.627 108.532 355.468 109.373 356.503 109.901C357.149 110.23 357.851 110.369 358.663 110.435C359.454 110.5 360.433 110.5 361.657 110.5H366.343C367.567 110.5 368.546 110.5 369.337 110.435C370.149 110.369 370.851 110.23 371.497 109.901C372.532 109.373 373.373 108.532 373.901 107.497C374.23 106.851 374.369 106.149 374.435 105.337C374.5 104.546 374.5 103.567 374.5 102.343V97.6566C374.5 96.4333 374.5 95.4542 374.435 94.663C374.369 93.8508 374.23 93.1488 373.901 92.5031C373.373 91.4682 372.532 90.6268 371.497 90.0995C370.851 89.7704 370.149 89.631 369.337 89.5646C368.546 89.5 367.567 89.5 366.343 89.5H361.657ZM357.411 91.8815C357.728 91.72 358.137 91.6142 358.826 91.558C359.526 91.5008 360.423 91.5 361.7 91.5H366.3C367.577 91.5 368.474 91.5008 369.174 91.558C369.863 91.6142 370.272 91.72 370.589 91.8815C371.248 92.217 371.783 92.7525 372.119 93.411C372.28 93.7279 372.386 94.1373 372.442 94.8258C372.499 95.5261 372.5 96.4234 372.5 97.7V102.3C372.5 103.577 372.499 104.474 372.442 105.174C372.386 105.863 372.28 106.272 372.119 106.589C371.783 107.248 371.248 107.783 370.589 108.119C370.272 108.28 369.863 108.386 369.174 108.442C368.474 108.499 367.577 108.5 366.3 108.5H361.7C360.423 108.5 359.526 108.499 358.826 108.442C358.137 108.386 357.728 108.28 357.411 108.119C356.752 107.783 356.217 107.248 355.881 106.589C355.72 106.272 355.614 105.863 355.558 105.174C355.501 104.474 355.5 103.577 355.5 102.3V97.7C355.5 96.4234 355.501 95.5261 355.558 94.8258C355.614 94.1373 355.72 93.7279 355.881 93.411C356.217 92.7525 356.752 92.217 357.411 91.8815Z" fill="black" style="fill:black;fill-opacity:1;"/>
<path d="M499.5 7.75C499.699 7.75 499.89 7.82902 500.03 7.96967C500.171 8.11032 500.25 8.30109 500.25 8.5L500.25 14.625C500.25 15.0392 499.914 15.375 499.5 15.375C499.086 15.375 498.75 15.0392 498.75 14.625L498.75 10.0396L497.53 11.5303L492.78 16.2803C492.487 16.5732 492.013 16.5732 491.72 16.2803C491.427 15.9874 491.427 15.5126 491.72 15.2197L496.47 10.4697L497.96 9.25L493.375 9.25C492.961 9.25 492.625 8.91421 492.625 8.5C492.625 8.08579 492.961 7.75 493.375 7.75H499.5Z" fill="black" style="fill:black;fill-opacity:1;"/>
<path fill-rule="evenodd" clip-rule="evenodd" d="M493.667 1.75C492.435 1.74999 491.464 1.74999 490.683 1.8138C489.887 1.8789 489.221 2.01413 488.617 2.32222C487.629 2.82555 486.826 3.6287 486.322 4.61655C486.014 5.2212 485.879 5.88657 485.814 6.68334C485.75 7.46432 485.75 8.43478 485.75 9.66669V14.3333C485.75 15.5652 485.75 16.5357 485.814 17.3167C485.879 18.1134 486.014 18.7788 486.322 19.3834C486.826 20.3713 487.629 21.1744 488.617 21.6778C489.221 21.9859 489.887 22.1211 490.683 22.1862C491.464 22.25 492.435 22.25 493.667 22.25H498.333C499.565 22.25 500.536 22.25 501.317 22.1862C502.113 22.1211 502.779 21.9859 503.383 21.6778C504.371 21.1744 505.174 20.3713 505.678 19.3834C505.986 18.7788 506.121 18.1134 506.186 17.3167C506.25 16.5357 506.25 15.5652 506.25 14.3333V9.66667C506.25 8.43477 506.25 7.46431 506.186 6.68333C506.121 5.88657 505.986 5.2212 505.678 4.61655C505.174 3.6287 504.371 2.82555 503.383 2.32222C502.779 2.01413 502.113 1.8789 501.317 1.8138C500.536 1.74999 499.565 1.74999 498.333 1.75H493.667ZM489.298 3.65873C489.655 3.47634 490.101 3.36634 490.805 3.30882C491.518 3.25058 492.428 3.25 493.7 3.25H498.3C499.572 3.25 500.482 3.25058 501.195 3.30882C501.899 3.36634 502.345 3.47634 502.702 3.65873C503.408 4.01825 503.982 4.59193 504.341 5.29754C504.524 5.65549 504.634 6.10148 504.691 6.80548C504.749 7.51824 504.75 8.42751 504.75 9.7V14.3C504.75 15.5725 504.749 16.4818 504.691 17.1945C504.634 17.8985 504.524 18.3445 504.341 18.7025C503.982 19.4081 503.408 19.9817 502.702 20.3413C502.345 20.5237 501.899 20.6337 501.195 20.6912C500.482 20.7494 499.572 20.75 498.3 20.75H493.7C492.428 20.75 491.518 20.7494 490.805 20.6912C490.101 20.6337 489.655 20.5237 489.298 20.3413C488.592 19.9817 488.018 19.4081 487.659 18.7025C487.476 18.3445 487.366 17.8985 487.309 17.1945C487.251 16.4818 487.25 15.5725 487.25 14.3V9.7C487.25 8.42751 487.251 7.51824 487.309 6.80548C487.366 6.10148 487.476 5.65549 487.659 5.29754C488.018 4.59193 488.592 4.01825 489.298 3.65873Z" fill="black" style="fill:black;fill-opacity:1;"/>
<path fill-rule="evenodd" clip-rule="evenodd" d="M493.662 45.625C492.434 45.625 491.459 45.625 490.673 45.6892C489.869 45.7549 489.185 45.8923 488.56 46.2108C487.548 46.7262 486.726 47.5484 486.211 48.5598C485.892 49.185 485.755 49.8687 485.689 50.6732C485.625 51.4593 485.625 52.434 485.625 53.6616V58.3384C485.625 59.566 485.625 60.5407 485.689 61.3268C485.755 62.1313 485.892 62.815 486.211 63.4402C486.726 64.4516 487.548 65.2738 488.56 65.7892C489.185 66.1077 489.869 66.2451 490.673 66.3108C491.459 66.375 492.434 66.375 493.662 66.375H498.338C499.566 66.375 500.541 66.375 501.327 66.3108C502.131 66.2451 502.815 66.1077 503.44 65.7892C504.452 65.2738 505.274 64.4516 505.789 63.4402C506.108 62.815 506.245 62.1313 506.311 61.3268C506.375 60.5407 506.375 59.566 506.375 58.3384V53.6616C506.375 52.434 506.375 51.4593 506.311 50.6732C506.245 49.8687 506.108 49.185 505.789 48.5598C505.274 47.5484 504.452 46.7262 503.44 46.2108C502.815 45.8923 502.131 45.7549 501.327 45.6892C500.541 45.625 499.566 45.625 498.338 45.625H493.662ZM489.354 47.7701C489.692 47.5982 490.119 47.4903 490.816 47.4334C491.522 47.3757 492.425 47.375 493.7 47.375H498.3C499.575 47.375 500.478 47.3757 501.184 47.4334C501.881 47.4903 502.308 47.5982 502.646 47.7701C503.328 48.1176 503.882 48.6722 504.23 49.3543C504.402 49.6917 504.51 50.1194 504.567 50.8157C504.624 51.5222 504.625 52.4254 504.625 53.7V58.3C504.625 59.5746 504.624 60.4778 504.567 61.1843C504.51 61.8806 504.402 62.3083 504.23 62.6457C503.882 63.3278 503.328 63.8824 502.646 64.2299C502.308 64.4018 501.881 64.5097 501.184 64.5666C500.478 64.6243 499.575 64.625 498.3 64.625H493.7C492.425 64.625 491.522 64.6243 490.816 64.5666C490.119 64.5097 489.692 64.4018 489.354 64.2299C488.672 63.8824 488.118 63.3278 487.77 62.6457C487.598 62.3083 487.49 61.8806 487.433 61.1843C487.376 60.4778 487.375 59.5746 487.375 58.3V53.7C487.375 52.4254 487.376 51.5222 487.433 50.8157C487.49 50.1194 487.598 49.6917 487.77 49.3543C488.118 48.6722 488.672 48.1176 489.354 47.7701Z" fill="black" style="fill:black;fill-opacity:1;"/>
<path d="M500.119 51.8813C499.955 51.7172 499.732 51.625 499.5 51.625H493.375C492.892 51.625 492.5 52.0168 492.5 52.5C492.5 52.9833 492.892 53.375 493.375 53.375L497.645 53.375L496.131 54.6312L491.631 59.1313C491.29 59.473 491.29 60.027 491.631 60.3687C491.973 60.7104 492.527 60.7104 492.869 60.3687L497.369 55.8687L498.625 54.3552L498.625 58.625C498.625 59.1082 499.017 59.5 499.5 59.5C499.983 59.5 500.375 59.1082 500.375 58.625L500.375 52.5C500.375 52.2679 500.283 52.0454 500.119 51.8813Z" fill="black" style="fill:black;fill-opacity:1;"/>
<path d="M499.5 95.5C499.765 95.5 500.02 95.6054 500.207 95.7929C500.395 95.9804 500.5 96.2348 500.5 96.5L500.5 102.625C500.5 103.177 500.052 103.625 499.5 103.625C498.948 103.625 498.5 103.177 498.5 102.625L498.5 98.6791L497.207 100.207L492.957 104.457C492.567 104.848 491.933 104.848 491.543 104.457C491.152 104.067 491.152 103.433 491.543 103.043L495.793 98.7929L497.321 97.5H493.375C492.823 97.5 492.375 97.0523 492.375 96.5C492.375 95.9477 492.823 95.5 493.375 95.5H499.5Z" fill="black" style="fill:black;fill-opacity:1;"/>
<path fill-rule="evenodd" clip-rule="evenodd" d="M493.657 89.5C492.433 89.5 491.454 89.5 490.663 89.5646C489.851 89.631 489.149 89.7704 488.503 90.0995C487.468 90.6268 486.627 91.4682 486.099 92.5031C485.77 93.1488 485.631 93.8508 485.565 94.663C485.5 95.4542 485.5 96.4333 485.5 97.6567V102.343C485.5 103.567 485.5 104.546 485.565 105.337C485.631 106.149 485.77 106.851 486.099 107.497C486.627 108.532 487.468 109.373 488.503 109.901C489.149 110.23 489.851 110.369 490.663 110.435C491.454 110.5 492.433 110.5 493.657 110.5H498.343C499.567 110.5 500.546 110.5 501.337 110.435C502.149 110.369 502.851 110.23 503.497 109.901C504.532 109.373 505.373 108.532 505.901 107.497C506.23 106.851 506.369 106.149 506.435 105.337C506.5 104.546 506.5 103.567 506.5 102.343V97.6566C506.5 96.4333 506.5 95.4542 506.435 94.663C506.369 93.8508 506.23 93.1488 505.901 92.5031C505.373 91.4682 504.532 90.6268 503.497 90.0995C502.851 89.7704 502.149 89.631 501.337 89.5646C500.546 89.5 499.567 89.5 498.343 89.5H493.657ZM489.411 91.8815C489.728 91.72 490.137 91.6142 490.826 91.558C491.526 91.5008 492.423 91.5 493.7 91.5H498.3C499.577 91.5 500.474 91.5008 501.174 91.558C501.863 91.6142 502.272 91.72 502.589 91.8815C503.248 92.217 503.783 92.7525 504.119 93.411C504.28 93.7279 504.386 94.1373 504.442 94.8258C504.499 95.5261 504.5 96.4234 504.5 97.7V102.3C504.5 103.577 504.499 104.474 504.442 105.174C504.386 105.863 504.28 106.272 504.119 106.589C503.783 107.248 503.248 107.783 502.589 108.119C502.272 108.28 501.863 108.386 501.174 108.442C500.474 108.499 499.577 108.5 498.3 108.5H493.7C492.423 108.5 491.526 108.499 490.826 108.442C490.137 108.386 489.728 108.28 489.411 108.119C488.752 107.783 488.217 107.248 487.881 106.589C487.72 106.272 487.614 105.863 487.558 105.174C487.501 104.474 487.5 103.577 487.5 102.3V97.7C487.5 96.4234 487.501 95.5261 487.558 94.8258C487.614 94.1373 487.72 93.7279 487.881 93.411C488.217 92.7525 488.752 92.217 489.411 91.8815Z" fill="black" style="fill:black;fill-opacity:1;"/>
<path d="M497.125 143.25H491.125C490.711 143.25 490.375 143.586 490.375 144C490.375 144.414 490.711 144.75 491.125 144.75H497.125L498.944 144.62L496.095 147.47C495.802 147.763 495.802 148.237 496.095 148.53C496.388 148.823 496.862 148.823 497.155 148.53L501.155 144.53C501.296 144.39 501.375 144.199 501.375 144C501.375 143.801 501.296 143.61 501.155 143.47L497.155 139.47C496.862 139.177 496.388 139.177 496.095 139.47C495.802 139.763 495.802 140.237 496.095 140.53L498.944 143.38L497.125 143.25Z" fill="black" style="fill:black;fill-opacity:1;"/>
<path fill-rule="evenodd" clip-rule="evenodd" d="M493.667 133.75C492.435 133.75 491.464 133.75 490.683 133.814C489.887 133.879 489.221 134.014 488.617 134.322C487.629 134.826 486.826 135.629 486.322 136.617C486.014 137.221 485.879 137.887 485.814 138.683C485.75 139.464 485.75 140.435 485.75 141.667V146.333C485.75 147.565 485.75 148.536 485.814 149.317C485.879 150.113 486.014 150.779 486.322 151.383C486.826 152.371 487.629 153.174 488.617 153.678C489.221 153.986 489.887 154.121 490.683 154.186C491.464 154.25 492.435 154.25 493.667 154.25H498.333C499.565 154.25 500.536 154.25 501.317 154.186C502.113 154.121 502.779 153.986 503.383 153.678C504.371 153.174 505.174 152.371 505.678 151.383C505.986 150.779 506.121 150.113 506.186 149.317C506.25 148.536 506.25 147.565 506.25 146.333V141.667C506.25 140.435 506.25 139.464 506.186 138.683C506.121 137.887 505.986 137.221 505.678 136.617C505.174 135.629 504.371 134.826 503.383 134.322C502.779 134.014 502.113 133.879 501.317 133.814C500.536 133.75 499.565 133.75 498.333 133.75H493.667ZM489.298 135.659C489.655 135.476 490.101 135.366 490.805 135.309C491.518 135.251 492.428 135.25 493.7 135.25H498.3C499.572 135.25 500.482 135.251 501.195 135.309C501.899 135.366 502.345 135.476 502.702 135.659C503.408 136.018 503.982 136.592 504.341 137.298C504.524 137.655 504.634 138.101 504.691 138.805C504.749 139.518 504.75 140.428 504.75 141.7V146.3C504.75 147.572 504.749 148.482 504.691 149.195C504.634 149.899 504.524 150.345 504.341 150.702C503.982 151.408 503.408 151.982 502.702 152.341C502.345 152.524 501.899 152.634 501.195 152.691C500.482 152.749 499.572 152.75 498.3 152.75H493.7C492.428 152.75 491.518 152.749 490.805 152.691C490.101 152.634 489.655 152.524 489.298 152.341C488.592 151.982 488.018 151.408 487.659 150.702C487.476 150.345 487.366 149.899 487.309 149.195C487.251 148.482 487.25 147.572 487.25 146.3V141.7C487.25 140.428 487.251 139.518 487.309 138.805C487.366 138.101 487.476 137.655 487.659 137.298C488.018 136.592 488.592 136.018 489.298 135.659Z" fill="black" style="fill:black;fill-opacity:1;"/>
<path d="M496.875 188.875H491.125C490.642 188.875 490.25 188.483 490.25 188C490.25 187.517 490.642 187.125 491.125 187.125H496.875L498.639 187.251L496.006 184.619C495.665 184.277 495.665 183.723 496.006 183.381C496.348 183.04 496.902 183.04 497.244 183.381L501.244 187.381C501.408 187.545 501.5 187.768 501.5 188C501.5 188.232 501.408 188.455 501.244 188.619L497.244 192.619C496.902 192.96 496.348 192.96 496.006 192.619C495.665 192.277 495.665 191.723 496.006 191.381L498.639 188.749L496.875 188.875Z" fill="black" style="fill:black;fill-opacity:1;"/>
<path fill-rule="evenodd" clip-rule="evenodd" d="M493.662 177.625C492.434 177.625 491.459 177.625 490.673 177.689C489.869 177.755 489.185 177.892 488.56 178.211C487.548 178.726 486.726 179.548 486.211 180.56C485.892 181.185 485.755 181.869 485.689 182.673C485.625 183.459 485.625 184.434 485.625 185.662V190.338C485.625 191.566 485.625 192.541 485.689 193.327C485.755 194.131 485.892 194.815 486.211 195.44C486.726 196.452 487.548 197.274 488.56 197.789C489.185 198.108 489.869 198.245 490.673 198.311C491.459 198.375 492.434 198.375 493.662 198.375H498.338C499.566 198.375 500.541 198.375 501.327 198.311C502.131 198.245 502.815 198.108 503.44 197.789C504.452 197.274 505.274 196.452 505.789 195.44C506.108 194.815 506.245 194.131 506.311 193.327C506.375 192.541 506.375 191.566 506.375 190.338V185.662C506.375 184.434 506.375 183.459 506.311 182.673C506.245 181.869 506.108 181.185 505.789 180.56C505.274 179.548 504.452 178.726 503.44 178.211C502.815 177.892 502.131 177.755 501.327 177.689C500.541 177.625 499.566 177.625 498.338 177.625H493.662ZM489.354 179.77C489.692 179.598 490.119 179.49 490.816 179.433C491.522 179.376 492.425 179.375 493.7 179.375H498.3C499.575 179.375 500.478 179.376 501.184 179.433C501.881 179.49 502.308 179.598 502.646 179.77C503.328 180.118 503.882 180.672 504.23 181.354C504.402 181.692 504.51 182.119 504.567 182.816C504.624 183.522 504.625 184.425 504.625 185.7V190.3C504.625 191.575 504.624 192.478 504.567 193.184C504.51 193.881 504.402 194.308 504.23 194.646C503.882 195.328 503.328 195.882 502.646 196.23C502.308 196.402 501.881 196.51 501.184 196.567C500.478 196.624 499.575 196.625 498.3 196.625H493.7C492.425 196.625 491.522 196.624 490.816 196.567C490.119 196.51 489.692 196.402 489.354 196.23C488.672 195.882 488.118 195.328 487.77 194.646C487.598 194.308 487.49 193.881 487.433 193.184C487.376 192.478 487.375 191.575 487.375 190.3V185.7C487.375 184.425 487.376 183.522 487.433 182.816C487.49 182.119 487.598 181.692 487.77 181.354C488.118 180.672 488.672 180.118 489.354 179.77Z" fill="black" style="fill:black;fill-opacity:1;"/>
<path d="M501.332 231.293C501.52 231.48 501.625 231.735 501.625 232C501.625 232.265 501.52 232.52 501.332 232.707L497.332 236.707C496.942 237.098 496.308 237.098 495.918 236.707C495.527 236.317 495.527 235.683 495.918 235.293L498.333 232.878L496.625 233L491.125 233C490.573 233 490.125 232.552 490.125 232C490.125 231.448 490.573 231 491.125 231L496.625 231L498.333 231.122L495.918 228.707C495.527 228.317 495.527 227.683 495.918 227.293C496.308 226.902 496.942 226.902 497.332 227.293L501.332 231.293Z" fill="black" style="fill:black;fill-opacity:1;"/>
<path fill-rule="evenodd" clip-rule="evenodd" d="M493.657 221.5C492.433 221.5 491.454 221.5 490.663 221.565C489.851 221.631 489.149 221.77 488.503 222.099C487.468 222.627 486.627 223.468 486.099 224.503C485.77 225.149 485.631 225.851 485.565 226.663C485.5 227.454 485.5 228.433 485.5 229.657V234.343C485.5 235.567 485.5 236.546 485.565 237.337C485.631 238.149 485.77 238.851 486.099 239.497C486.627 240.532 487.468 241.373 488.503 241.901C489.149 242.23 489.851 242.369 490.663 242.435C491.454 242.5 492.433 242.5 493.657 242.5H498.343C499.567 242.5 500.546 242.5 501.337 242.435C502.149 242.369 502.851 242.23 503.497 241.901C504.532 241.373 505.373 240.532 505.901 239.497C506.23 238.851 506.369 238.149 506.435 237.337C506.5 236.546 506.5 235.567 506.5 234.343V229.657C506.5 228.433 506.5 227.454 506.435 226.663C506.369 225.851 506.23 225.149 505.901 224.503C505.373 223.468 504.532 222.627 503.497 222.099C502.851 221.77 502.149 221.631 501.337 221.565C500.546 221.5 499.567 221.5 498.343 221.5H493.657ZM489.411 223.881C489.728 223.72 490.137 223.614 490.826 223.558C491.526 223.501 492.423 223.5 493.7 223.5H498.3C499.577 223.5 500.474 223.501 501.174 223.558C501.863 223.614 502.272 223.72 502.589 223.881C503.248 224.217 503.783 224.752 504.119 225.411C504.28 225.728 504.386 226.137 504.442 226.826C504.499 227.526 504.5 228.423 504.5 229.7V234.3C504.5 235.577 504.499 236.474 504.442 237.174C504.386 237.863 504.28 238.272 504.119 238.589C503.783 239.248 503.248 239.783 502.589 240.119C502.272 240.28 501.863 240.386 501.174 240.442C500.474 240.499 499.577 240.5 498.3 240.5H493.7C492.423 240.5 491.526 240.499 490.826 240.442C490.137 240.386 489.728 240.28 489.411 240.119C488.752 239.783 488.217 239.248 487.881 238.589C487.72 238.272 487.614 237.863 487.558 237.174C487.501 236.474 487.5 235.577 487.5 234.3V229.7C487.5 228.423 487.501 227.526 487.558 226.826C487.614 226.137 487.72 225.728 487.881 225.411C488.217 224.752 488.752 224.217 489.411 223.881Z" fill="black" style="fill:black;fill-opacity:1;"/>
<path d="M455.5 148.25C455.699 148.25 455.89 148.171 456.03 148.03C456.171 147.89 456.25 147.699 456.25 147.5L456.25 141.375C456.25 140.961 455.914 140.625 455.5 140.625C455.086 140.625 454.75 140.961 454.75 141.375L454.75 145.96L453.53 144.47L448.78 139.72C448.487 139.427 448.013 139.427 447.72 139.72C447.427 140.013 447.427 140.487 447.72 140.78L452.47 145.53L453.96 146.75L449.375 146.75C448.961 146.75 448.625 147.086 448.625 147.5C448.625 147.914 448.961 148.25 449.375 148.25H455.5Z" fill="black" style="fill:black;fill-opacity:1;"/>
<path fill-rule="evenodd" clip-rule="evenodd" d="M449.667 133.75C448.435 133.75 447.464 133.75 446.683 133.814C445.887 133.879 445.221 134.014 444.617 134.322C443.629 134.826 442.826 135.629 442.322 136.617C442.014 137.221 441.879 137.887 441.814 138.683C441.75 139.464 441.75 140.435 441.75 141.667V146.333C441.75 147.565 441.75 148.536 441.814 149.317C441.879 150.113 442.014 150.779 442.322 151.383C442.826 152.371 443.629 153.174 444.617 153.678C445.221 153.986 445.887 154.121 446.683 154.186C447.464 154.25 448.435 154.25 449.667 154.25H454.333C455.565 154.25 456.536 154.25 457.317 154.186C458.113 154.121 458.779 153.986 459.383 153.678C460.371 153.174 461.174 152.371 461.678 151.383C461.986 150.779 462.121 150.113 462.186 149.317C462.25 148.536 462.25 147.565 462.25 146.333V141.667C462.25 140.435 462.25 139.464 462.186 138.683C462.121 137.887 461.986 137.221 461.678 136.617C461.174 135.629 460.371 134.826 459.383 134.322C458.779 134.014 458.113 133.879 457.317 133.814C456.536 133.75 455.565 133.75 454.333 133.75H449.667ZM445.298 135.659C445.655 135.476 446.101 135.366 446.805 135.309C447.518 135.251 448.428 135.25 449.7 135.25H454.3C455.572 135.25 456.482 135.251 457.195 135.309C457.899 135.366 458.345 135.476 458.702 135.659C459.408 136.018 459.982 136.592 460.341 137.298C460.524 137.655 460.634 138.101 460.691 138.805C460.749 139.518 460.75 140.428 460.75 141.7V146.3C460.75 147.572 460.749 148.482 460.691 149.195C460.634 149.899 460.524 150.345 460.341 150.702C459.982 151.408 459.408 151.982 458.702 152.341C458.345 152.524 457.899 152.634 457.195 152.691C456.482 152.749 455.572 152.75 454.3 152.75H449.7C448.428 152.75 447.518 152.749 446.805 152.691C446.101 152.634 445.655 152.524 445.298 152.341C444.592 151.982 444.018 151.408 443.659 150.702C443.476 150.345 443.366 149.899 443.309 149.195C443.251 148.482 443.25 147.572 443.25 146.3V141.7C443.25 140.428 443.251 139.518 443.309 138.805C443.366 138.101 443.476 137.655 443.659 137.298C444.018 136.592 444.592 136.018 445.298 135.659Z" fill="black" style="fill:black;fill-opacity:1;"/>
<path fill-rule="evenodd" clip-rule="evenodd" d="M449.662 177.625C448.434 177.625 447.459 177.625 446.673 177.689C445.869 177.755 445.185 177.892 444.56 178.211C443.548 178.726 442.726 179.548 442.211 180.56C441.892 181.185 441.755 181.869 441.689 182.673C441.625 183.459 441.625 184.434 441.625 185.662V190.338C441.625 191.566 441.625 192.541 441.689 193.327C441.755 194.131 441.892 194.815 442.211 195.44C442.726 196.452 443.548 197.274 444.56 197.789C445.185 198.108 445.869 198.245 446.673 198.311C447.459 198.375 448.434 198.375 449.662 198.375H454.338C455.566 198.375 456.541 198.375 457.327 198.311C458.131 198.245 458.815 198.108 459.44 197.789C460.452 197.274 461.274 196.452 461.789 195.44C462.108 194.815 462.245 194.131 462.311 193.327C462.375 192.541 462.375 191.566 462.375 190.338V185.662C462.375 184.434 462.375 183.459 462.311 182.673C462.245 181.869 462.108 181.185 461.789 180.56C461.274 179.548 460.452 178.726 459.44 178.211C458.815 177.892 458.131 177.755 457.327 177.689C456.541 177.625 455.566 177.625 454.338 177.625H449.662ZM445.354 179.77C445.692 179.598 446.119 179.49 446.816 179.433C447.522 179.376 448.425 179.375 449.7 179.375H454.3C455.575 179.375 456.478 179.376 457.184 179.433C457.881 179.49 458.308 179.598 458.646 179.77C459.328 180.118 459.882 180.672 460.23 181.354C460.402 181.692 460.51 182.119 460.567 182.816C460.624 183.522 460.625 184.425 460.625 185.7V190.3C460.625 191.575 460.624 192.478 460.567 193.184C460.51 193.881 460.402 194.308 460.23 194.646C459.882 195.328 459.328 195.882 458.646 196.23C458.308 196.402 457.881 196.51 457.184 196.567C456.478 196.624 455.575 196.625 454.3 196.625H449.7C448.425 196.625 447.522 196.624 446.816 196.567C446.119 196.51 445.692 196.402 445.354 196.23C444.672 195.882 444.118 195.328 443.77 194.646C443.598 194.308 443.49 193.881 443.433 193.184C443.376 192.478 443.375 191.575 443.375 190.3V185.7C443.375 184.425 443.376 183.522 443.433 182.816C443.49 182.119 443.598 181.692 443.77 181.354C444.118 180.672 444.672 180.118 445.354 179.77Z" fill="black" style="fill:black;fill-opacity:1;"/>
<path d="M456.119 192.119C455.955 192.283 455.732 192.375 455.5 192.375H449.375C448.892 192.375 448.5 191.983 448.5 191.5C448.5 191.017 448.892 190.625 449.375 190.625L453.645 190.625L452.131 189.369L447.631 184.869C447.29 184.527 447.29 183.973 447.631 183.631C447.973 183.29 448.527 183.29 448.869 183.631L453.369 188.131L454.625 189.645L454.625 185.375C454.625 184.892 455.017 184.5 455.5 184.5C455.983 184.5 456.375 184.892 456.375 185.375L456.375 191.5C456.375 191.732 456.283 191.955 456.119 192.119Z" fill="black" style="fill:black;fill-opacity:1;"/>
<path d="M455.5 236.5C455.765 236.5 456.02 236.395 456.207 236.207C456.395 236.02 456.5 235.765 456.5 235.5L456.5 229.375C456.5 228.823 456.052 228.375 455.5 228.375C454.948 228.375 454.5 228.823 454.5 229.375L454.5 233.321L453.207 231.793L448.957 227.543C448.567 227.152 447.933 227.152 447.543 227.543C447.152 227.933 447.152 228.567 447.543 228.957L451.793 233.207L453.321 234.5L449.375 234.5C448.823 234.5 448.375 234.948 448.375 235.5C448.375 236.052 448.823 236.5 449.375 236.5H455.5Z" fill="black" style="fill:black;fill-opacity:1;"/>
<path fill-rule="evenodd" clip-rule="evenodd" d="M449.657 221.5C448.433 221.5 447.454 221.5 446.663 221.565C445.851 221.631 445.149 221.77 444.503 222.099C443.468 222.627 442.627 223.468 442.099 224.503C441.77 225.149 441.631 225.851 441.565 226.663C441.5 227.454 441.5 228.433 441.5 229.657V234.343C441.5 235.567 441.5 236.546 441.565 237.337C441.631 238.149 441.77 238.851 442.099 239.497C442.627 240.532 443.468 241.373 444.503 241.901C445.149 242.23 445.851 242.369 446.663 242.435C447.454 242.5 448.433 242.5 449.657 242.5H454.343C455.567 242.5 456.546 242.5 457.337 242.435C458.149 242.369 458.851 242.23 459.497 241.901C460.532 241.373 461.373 240.532 461.901 239.497C462.23 238.851 462.369 238.149 462.435 237.337C462.5 236.546 462.5 235.567 462.5 234.343V229.657C462.5 228.433 462.5 227.454 462.435 226.663C462.369 225.851 462.23 225.149 461.901 224.503C461.373 223.468 460.532 222.627 459.497 222.099C458.851 221.77 458.149 221.631 457.337 221.565C456.546 221.5 455.567 221.5 454.343 221.5H449.657ZM445.411 223.881C445.728 223.72 446.137 223.614 446.826 223.558C447.526 223.501 448.423 223.5 449.7 223.5H454.3C455.577 223.5 456.474 223.501 457.174 223.558C457.863 223.614 458.272 223.72 458.589 223.881C459.248 224.217 459.783 224.752 460.119 225.411C460.28 225.728 460.386 226.137 460.442 226.826C460.499 227.526 460.5 228.423 460.5 229.7V234.3C460.5 235.577 460.499 236.474 460.442 237.174C460.386 237.863 460.28 238.272 460.119 238.589C459.783 239.248 459.248 239.783 458.589 240.119C458.272 240.28 457.863 240.386 457.174 240.442C456.474 240.499 455.577 240.5 454.3 240.5H449.7C448.423 240.5 447.526 240.499 446.826 240.442C446.137 240.386 445.728 240.28 445.411 240.119C444.752 239.783 444.217 239.248 443.881 238.589C443.72 238.272 443.614 237.863 443.558 237.174C443.501 236.474 443.5 235.577 443.5 234.3V229.7C443.5 228.423 443.501 227.526 443.558 226.826C443.614 226.137 443.72 225.728 443.881 225.411C444.217 224.752 444.752 224.217 445.411 223.881Z" fill="black" style="fill:black;fill-opacity:1;"/>
<path d="M408.75 145.125V139.125C408.75 138.711 408.414 138.375 408 138.375C407.586 138.375 407.25 138.711 407.25 139.125V145.125L407.38 146.944L404.53 144.095C404.237 143.802 403.763 143.802 403.47 144.095C403.177 144.388 403.177 144.862 403.47 145.155L407.47 149.155C407.61 149.296 407.801 149.375 408 149.375C408.199 149.375 408.39 149.296 408.53 149.155L412.53 145.155C412.823 144.862 412.823 144.388 412.53 144.095C412.237 143.802 411.763 143.802 411.47 144.095L408.62 146.944L408.75 145.125Z" fill="black" style="fill:black;fill-opacity:1;"/>
<path fill-rule="evenodd" clip-rule="evenodd" d="M405.667 133.75C404.435 133.75 403.464 133.75 402.683 133.814C401.887 133.879 401.221 134.014 400.617 134.322C399.629 134.826 398.826 135.629 398.322 136.617C398.014 137.221 397.879 137.887 397.814 138.683C397.75 139.464 397.75 140.435 397.75 141.667V146.333C397.75 147.565 397.75 148.536 397.814 149.317C397.879 150.113 398.014 150.779 398.322 151.383C398.826 152.371 399.629 153.174 400.617 153.678C401.221 153.986 401.887 154.121 402.683 154.186C403.464 154.25 404.435 154.25 405.667 154.25H410.333C411.565 154.25 412.536 154.25 413.317 154.186C414.113 154.121 414.779 153.986 415.383 153.678C416.371 153.174 417.174 152.371 417.678 151.383C417.986 150.779 418.121 150.113 418.186 149.317C418.25 148.536 418.25 147.565 418.25 146.333V141.667C418.25 140.435 418.25 139.464 418.186 138.683C418.121 137.887 417.986 137.221 417.678 136.617C417.174 135.629 416.371 134.826 415.383 134.322C414.779 134.014 414.113 133.879 413.317 133.814C412.536 133.75 411.565 133.75 410.333 133.75H405.667ZM401.298 135.659C401.655 135.476 402.101 135.366 402.805 135.309C403.518 135.251 404.428 135.25 405.7 135.25H410.3C411.572 135.25 412.482 135.251 413.195 135.309C413.899 135.366 414.345 135.476 414.702 135.659C415.408 136.018 415.982 136.592 416.341 137.298C416.524 137.655 416.634 138.101 416.691 138.805C416.749 139.518 416.75 140.428 416.75 141.7V146.3C416.75 147.572 416.749 148.482 416.691 149.195C416.634 149.899 416.524 150.345 416.341 150.702C415.982 151.408 415.408 151.982 414.702 152.341C414.345 152.524 413.899 152.634 413.195 152.691C412.482 152.749 411.572 152.75 410.3 152.75H405.7C404.428 152.75 403.518 152.749 402.805 152.691C402.101 152.634 401.655 152.524 401.298 152.341C400.592 151.982 400.018 151.408 399.659 150.702C399.476 150.345 399.366 149.899 399.309 149.195C399.251 148.482 399.25 147.572 399.25 146.3V141.7C399.25 140.428 399.251 139.518 399.309 138.805C399.366 138.101 399.476 137.655 399.659 137.298C400.018 136.592 400.592 136.018 401.298 135.659Z" fill="black" style="fill:black;fill-opacity:1;"/>
<path d="M407.125 188.875V183.125C407.125 182.642 407.517 182.25 408 182.25C408.483 182.25 408.875 182.642 408.875 183.125L408.875 188.875L408.749 190.639L411.381 188.006C411.723 187.665 412.277 187.665 412.619 188.006C412.96 188.348 412.96 188.902 412.619 189.244L408.619 193.244C408.455 193.408 408.232 193.5 408 193.5C407.768 193.5 407.545 193.408 407.381 193.244L403.381 189.244C403.04 188.902 403.04 188.348 403.381 188.006C403.723 187.665 404.277 187.665 404.619 188.006L407.251 190.639L407.125 188.875Z" fill="black" style="fill:black;fill-opacity:1;"/>
<path fill-rule="evenodd" clip-rule="evenodd" d="M405.662 177.625C404.434 177.625 403.459 177.625 402.673 177.689C401.869 177.755 401.185 177.892 400.56 178.211C399.548 178.726 398.726 179.548 398.211 180.56C397.892 181.185 397.755 181.869 397.689 182.673C397.625 183.459 397.625 184.434 397.625 185.662V190.338C397.625 191.566 397.625 192.541 397.689 193.327C397.755 194.131 397.892 194.815 398.211 195.44C398.726 196.452 399.548 197.274 400.56 197.789C401.185 198.108 401.869 198.245 402.673 198.311C403.459 198.375 404.434 198.375 405.662 198.375H410.338C411.566 198.375 412.541 198.375 413.327 198.311C414.131 198.245 414.815 198.108 415.44 197.789C416.452 197.274 417.274 196.452 417.789 195.44C418.108 194.815 418.245 194.131 418.311 193.327C418.375 192.541 418.375 191.566 418.375 190.338V185.662C418.375 184.434 418.375 183.459 418.311 182.673C418.245 181.869 418.108 181.185 417.789 180.56C417.274 179.548 416.452 178.726 415.44 178.211C414.815 177.892 414.131 177.755 413.327 177.689C412.541 177.625 411.566 177.625 410.338 177.625H405.662ZM401.354 179.77C401.692 179.598 402.119 179.49 402.816 179.433C403.522 179.376 404.425 179.375 405.7 179.375H410.3C411.575 179.375 412.478 179.376 413.184 179.433C413.881 179.49 414.308 179.598 414.646 179.77C415.328 180.118 415.882 180.672 416.23 181.354C416.402 181.692 416.51 182.119 416.567 182.816C416.624 183.522 416.625 184.425 416.625 185.7V190.3C416.625 191.575 416.624 192.478 416.567 193.184C416.51 193.881 416.402 194.308 416.23 194.646C415.882 195.328 415.328 195.882 414.646 196.23C414.308 196.402 413.881 196.51 413.184 196.567C412.478 196.624 411.575 196.625 410.3 196.625H405.7C404.425 196.625 403.522 196.624 402.816 196.567C402.119 196.51 401.692 196.402 401.354 196.23C400.672 195.882 400.118 195.328 399.77 194.646C399.598 194.308 399.49 193.881 399.433 193.184C399.376 192.478 399.375 191.575 399.375 190.3V185.7C399.375 184.425 399.376 183.522 399.433 182.816C399.49 182.119 399.598 181.692 399.77 181.354C400.118 180.672 400.672 180.118 401.354 179.77Z" fill="black" style="fill:black;fill-opacity:1;"/>
<path d="M407.293 237.332C407.48 237.52 407.735 237.625 408 237.625C408.265 237.625 408.52 237.52 408.707 237.332L412.707 233.332C413.098 232.942 413.098 232.308 412.707 231.918C412.317 231.527 411.683 231.527 411.293 231.918L408.878 234.333L409 232.625L409 227.125C409 226.573 408.552 226.125 408 226.125C407.448 226.125 407 226.573 407 227.125L407 232.625L407.122 234.333L404.707 231.918C404.317 231.527 403.683 231.527 403.293 231.918C402.902 232.308 402.902 232.942 403.293 233.332L407.293 237.332Z" fill="black" style="fill:black;fill-opacity:1;"/>
<path fill-rule="evenodd" clip-rule="evenodd" d="M405.657 221.5C404.433 221.5 403.454 221.5 402.663 221.565C401.851 221.631 401.149 221.77 400.503 222.099C399.468 222.627 398.627 223.468 398.099 224.503C397.77 225.149 397.631 225.851 397.565 226.663C397.5 227.454 397.5 228.433 397.5 229.657V234.343C397.5 235.567 397.5 236.546 397.565 237.337C397.631 238.149 397.77 238.851 398.099 239.497C398.627 240.532 399.468 241.373 400.503 241.901C401.149 242.23 401.851 242.369 402.663 242.435C403.454 242.5 404.433 242.5 405.657 242.5H410.343C411.567 242.5 412.546 242.5 413.337 242.435C414.149 242.369 414.851 242.23 415.497 241.901C416.532 241.373 417.373 240.532 417.901 239.497C418.23 238.851 418.369 238.149 418.435 237.337C418.5 236.546 418.5 235.567 418.5 234.343V229.657C418.5 228.433 418.5 227.454 418.435 226.663C418.369 225.851 418.23 225.149 417.901 224.503C417.373 223.468 416.532 222.627 415.497 222.099C414.851 221.77 414.149 221.631 413.337 221.565C412.546 221.5 411.567 221.5 410.343 221.5H405.657ZM401.411 223.881C401.728 223.72 402.137 223.614 402.826 223.558C403.526 223.501 404.423 223.5 405.7 223.5H410.3C411.577 223.5 412.474 223.501 413.174 223.558C413.863 223.614 414.272 223.72 414.589 223.881C415.248 224.217 415.783 224.752 416.119 225.411C416.28 225.728 416.386 226.137 416.442 226.826C416.499 227.526 416.5 228.423 416.5 229.7V234.3C416.5 235.577 416.499 236.474 416.442 237.174C416.386 237.863 416.28 238.272 416.119 238.589C415.783 239.248 415.248 239.783 414.589 240.119C414.272 240.28 413.863 240.386 413.174 240.442C412.474 240.499 411.577 240.5 410.3 240.5H405.7C404.423 240.5 403.526 240.499 402.826 240.442C402.137 240.386 401.728 240.28 401.411 240.119C400.752 239.783 400.217 239.248 399.881 238.589C399.72 238.272 399.614 237.863 399.558 237.174C399.501 236.474 399.5 235.577 399.5 234.3V229.7C399.5 228.423 399.501 227.526 399.558 226.826C399.614 226.137 399.72 225.728 399.881 225.411C400.217 224.752 400.752 224.217 401.411 223.881Z" fill="black" style="fill:black;fill-opacity:1;"/>
<path d="M360.5 148.25C360.301 148.25 360.11 148.171 359.97 148.03C359.829 147.89 359.75 147.699 359.75 147.5L359.75 141.375C359.75 140.961 360.086 140.625 360.5 140.625C360.914 140.625 361.25 140.961 361.25 141.375L361.25 145.96L362.47 144.47L367.22 139.72C367.513 139.427 367.987 139.427 368.28 139.72C368.573 140.013 368.573 140.487 368.28 140.78L363.53 145.53L362.04 146.75L366.625 146.75C367.039 146.75 367.375 147.086 367.375 147.5C367.375 147.914 367.039 148.25 366.625 148.25H360.5Z" fill="black" style="fill:black;fill-opacity:1;"/>
<path fill-rule="evenodd" clip-rule="evenodd" d="M361.667 133.75C360.435 133.75 359.464 133.75 358.683 133.814C357.887 133.879 357.221 134.014 356.617 134.322C355.629 134.826 354.826 135.629 354.322 136.617C354.014 137.221 353.879 137.887 353.814 138.683C353.75 139.464 353.75 140.435 353.75 141.667V146.333C353.75 147.565 353.75 148.536 353.814 149.317C353.879 150.113 354.014 150.779 354.322 151.383C354.826 152.371 355.629 153.174 356.617 153.678C357.221 153.986 357.887 154.121 358.683 154.186C359.464 154.25 360.435 154.25 361.667 154.25H366.333C367.565 154.25 368.536 154.25 369.317 154.186C370.113 154.121 370.779 153.986 371.383 153.678C372.371 153.174 373.174 152.371 373.678 151.383C373.986 150.779 374.121 150.113 374.186 149.317C374.25 148.536 374.25 147.565 374.25 146.333V141.667C374.25 140.435 374.25 139.464 374.186 138.683C374.121 137.887 373.986 137.221 373.678 136.617C373.174 135.629 372.371 134.826 371.383 134.322C370.779 134.014 370.113 133.879 369.317 133.814C368.536 133.75 367.565 133.75 366.333 133.75H361.667ZM357.298 135.659C357.655 135.476 358.101 135.366 358.805 135.309C359.518 135.251 360.428 135.25 361.7 135.25H366.3C367.572 135.25 368.482 135.251 369.195 135.309C369.899 135.366 370.345 135.476 370.702 135.659C371.408 136.018 371.982 136.592 372.341 137.298C372.524 137.655 372.634 138.101 372.691 138.805C372.749 139.518 372.75 140.428 372.75 141.7V146.3C372.75 147.572 372.749 148.482 372.691 149.195C372.634 149.899 372.524 150.345 372.341 150.702C371.982 151.408 371.408 151.982 370.702 152.341C370.345 152.524 369.899 152.634 369.195 152.691C368.482 152.749 367.572 152.75 366.3 152.75H361.7C360.428 152.75 359.518 152.749 358.805 152.691C358.101 152.634 357.655 152.524 357.298 152.341C356.592 151.982 356.018 151.408 355.659 150.702C355.476 150.345 355.366 149.899 355.309 149.195C355.251 148.482 355.25 147.572 355.25 146.3V141.7C355.25 140.428 355.251 139.518 355.309 138.805C355.366 138.101 355.476 137.655 355.659 137.298C356.018 136.592 356.592 136.018 357.298 135.659Z" fill="black" style="fill:black;fill-opacity:1;"/>
<path fill-rule="evenodd" clip-rule="evenodd" d="M361.662 177.625C360.434 177.625 359.459 177.625 358.673 177.689C357.869 177.755 357.185 177.892 356.56 178.211C355.548 178.726 354.726 179.548 354.211 180.56C353.892 181.185 353.755 181.869 353.689 182.673C353.625 183.459 353.625 184.434 353.625 185.662V190.338C353.625 191.566 353.625 192.541 353.689 193.327C353.755 194.131 353.892 194.815 354.211 195.44C354.726 196.452 355.548 197.274 356.56 197.789C357.185 198.108 357.869 198.245 358.673 198.311C359.459 198.375 360.434 198.375 361.662 198.375H366.338C367.566 198.375 368.541 198.375 369.327 198.311C370.131 198.245 370.815 198.108 371.44 197.789C372.452 197.274 373.274 196.452 373.789 195.44C374.108 194.815 374.245 194.131 374.311 193.327C374.375 192.541 374.375 191.566 374.375 190.338V185.662C374.375 184.434 374.375 183.459 374.311 182.673C374.245 181.869 374.108 181.185 373.789 180.56C373.274 179.548 372.452 178.726 371.44 178.211C370.815 177.892 370.131 177.755 369.327 177.689C368.541 177.625 367.566 177.625 366.338 177.625H361.662ZM357.354 179.77C357.692 179.598 358.119 179.49 358.816 179.433C359.522 179.376 360.425 179.375 361.7 179.375H366.3C367.575 179.375 368.478 179.376 369.184 179.433C369.881 179.49 370.308 179.598 370.646 179.77C371.328 180.118 371.882 180.672 372.23 181.354C372.402 181.692 372.51 182.119 372.567 182.816C372.624 183.522 372.625 184.425 372.625 185.7V190.3C372.625 191.575 372.624 192.478 372.567 193.184C372.51 193.881 372.402 194.308 372.23 194.646C371.882 195.328 371.328 195.882 370.646 196.23C370.308 196.402 369.881 196.51 369.184 196.567C368.478 196.624 367.575 196.625 366.3 196.625H361.7C360.425 196.625 359.522 196.624 358.816 196.567C358.119 196.51 357.692 196.402 357.354 196.23C356.672 195.882 356.118 195.328 355.77 194.646C355.598 194.308 355.49 193.881 355.433 193.184C355.376 192.478 355.375 191.575 355.375 190.3V185.7C355.375 184.425 355.376 183.522 355.433 182.816C355.49 182.119 355.598 181.692 355.77 181.354C356.118 180.672 356.672 180.118 357.354 179.77Z" fill="black" style="fill:black;fill-opacity:1;"/>
<path d="M359.881 192.119C360.045 192.283 360.268 192.375 360.5 192.375H366.625C367.108 192.375 367.5 191.983 367.5 191.5C367.5 191.017 367.108 190.625 366.625 190.625L362.355 190.625L363.869 189.369L368.369 184.869C368.71 184.527 368.71 183.973 368.369 183.631C368.027 183.29 367.473 183.29 367.131 183.631L362.631 188.131L361.375 189.645L361.375 185.375C361.375 184.892 360.983 184.5 360.5 184.5C360.017 184.5 359.625 184.892 359.625 185.375L359.625 191.5C359.625 191.732 359.717 191.955 359.881 192.119Z" fill="black" style="fill:black;fill-opacity:1;"/>
<path d="M360.5 236.5C360.235 236.5 359.98 236.395 359.793 236.207C359.605 236.02 359.5 235.765 359.5 235.5L359.5 229.375C359.5 228.823 359.948 228.375 360.5 228.375C361.052 228.375 361.5 228.823 361.5 229.375L361.5 233.321L362.793 231.793L367.043 227.543C367.433 227.152 368.067 227.152 368.457 227.543C368.848 227.933 368.848 228.567 368.457 228.957L364.207 233.207L362.679 234.5L366.625 234.5C367.177 234.5 367.625 234.948 367.625 235.5C367.625 236.052 367.177 236.5 366.625 236.5H360.5Z" fill="black" style="fill:black;fill-opacity:1;"/>
<path fill-rule="evenodd" clip-rule="evenodd" d="M361.657 221.5C360.433 221.5 359.454 221.5 358.663 221.565C357.851 221.631 357.149 221.77 356.503 222.099C355.468 222.627 354.627 223.468 354.099 224.503C353.77 225.149 353.631 225.851 353.565 226.663C353.5 227.454 353.5 228.433 353.5 229.657V234.343C353.5 235.567 353.5 236.546 353.565 237.337C353.631 238.149 353.77 238.851 354.099 239.497C354.627 240.532 355.468 241.373 356.503 241.901C357.149 242.23 357.851 242.369 358.663 242.435C359.454 242.5 360.433 242.5 361.657 242.5H366.343C367.567 242.5 368.546 242.5 369.337 242.435C370.149 242.369 370.851 242.23 371.497 241.901C372.532 241.373 373.373 240.532 373.901 239.497C374.23 238.851 374.369 238.149 374.435 237.337C374.5 236.546 374.5 235.567 374.5 234.343V229.657C374.5 228.433 374.5 227.454 374.435 226.663C374.369 225.851 374.23 225.149 373.901 224.503C373.373 223.468 372.532 222.627 371.497 222.099C370.851 221.77 370.149 221.631 369.337 221.565C368.546 221.5 367.567 221.5 366.343 221.5H361.657ZM357.411 223.881C357.728 223.72 358.137 223.614 358.826 223.558C359.526 223.501 360.423 223.5 361.7 223.5H366.3C367.577 223.5 368.474 223.501 369.174 223.558C369.863 223.614 370.272 223.72 370.589 223.881C371.248 224.217 371.783 224.752 372.119 225.411C372.28 225.728 372.386 226.137 372.442 226.826C372.499 227.526 372.5 228.423 372.5 229.7V234.3C372.5 235.577 372.499 236.474 372.442 237.174C372.386 237.863 372.28 238.272 372.119 238.589C371.783 239.248 371.248 239.783 370.589 240.119C370.272 240.28 369.863 240.386 369.174 240.442C368.474 240.499 367.577 240.5 366.3 240.5H361.7C360.423 240.5 359.526 240.499 358.826 240.442C358.137 240.386 357.728 240.28 357.411 240.119C356.752 239.783 356.217 239.248 355.881 238.589C355.72 238.272 355.614 237.863 355.558 237.174C355.501 236.474 355.5 235.577 355.5 234.3V229.7C355.5 228.423 355.501 227.526 355.558 226.826C355.614 226.137 355.72 225.728 355.881 225.411C356.217 224.752 356.752 224.217 357.411 223.881Z" fill="black" style="fill:black;fill-opacity:1;"/>
</g>
<defs>
<clipPath id="clip0_38_1373">
<rect width="508" height="244" fill="white" style="fill:white;fill-opacity:1;"/>
</clipPath>
</defs>
</svg>
